<?xml version="1.0" standalone="no"?>
<!DOCTYPE svg PUBLIC "-//W3C//DTD SVG 20010904//EN"
 "http://www.w3.org/TR/2001/REC-SVG-20010904/DTD/svg10.dtd">
<svg version="1.0" xmlns="http://www.w3.org/2000/svg"
 width="955.000000pt" height="612.000000pt" viewBox="0 0 955.000000 612.000000"
 preserveAspectRatio="xMidYMid meet">

<g transform="translate(0.000000,612.000000) scale(0.100000,-0.100000)"
fill="#000000" stroke="none">
<path d="M0 3060 l0 -3060 75 0 75 0 0 54 c0 30 4 66 10 80 11 29 44 35 54 11
3 -8 21 -23 41 -32 35 -17 43 -35 26 -62 -16 -25 -1 -51 30 -51 29 0 32 5 30
50 -1 15 9 38 23 55 32 37 34 56 3 28 -19 -19 -24 -19 -36 -6 -9 10 -17 11
-23 5 -13 -13 -2 -32 18 -32 18 0 18 -16 0 -23 -9 -4 -17 2 -21 13 -3 10 -23
27 -43 37 -33 16 -37 21 -34 53 1 19 9 40 17 46 8 6 15 17 15 23 0 7 5 9 10 6
6 -3 10 -19 10 -35 0 -32 9 -60 19 -60 4 0 5 28 3 62 -4 58 -4 61 17 55 17 -4
21 -1 21 19 0 22 3 23 20 14 17 -9 20 -8 20 10 0 11 5 20 11 20 5 0 7 -5 4
-10 -3 -6 2 -10 12 -11 16 0 16 -1 1 -7 -15 -6 -14 -9 7 -18 19 -9 25 -9 29 3
7 17 -12 56 -23 48 -5 -2 -15 2 -22 11 -11 13 -9 14 13 9 14 -4 29 -2 32 3 3
6 -2 8 -13 5 -22 -6 -36 23 -15 31 9 3 12 1 9 -4 -3 -6 -1 -10 4 -10 6 0 11 4
11 9 0 17 42 24 51 10 7 -11 9 -11 9 3 0 9 -6 19 -13 22 -8 4 -7 5 3 5 31 -2
41 1 34 12 -4 8 0 8 15 0 19 -10 20 -15 9 -34 -7 -12 -13 -32 -15 -45 -2 -23
-1 -23 23 -8 19 13 24 14 24 3 0 -17 -34 -49 -43 -40 -4 3 -7 -6 -7 -21 0 -14
-6 -29 -13 -32 -8 -3 -14 -10 -15 -17 -16 -148 -17 -140 19 -179 61 -64 104
-72 428 -76 191 -2 287 0 294 7 13 13 40 15 33 2 -4 -5 35 -10 89 -10 94 -1
95 -1 95 23 0 13 3 31 6 40 3 8 -3 22 -15 33 -12 9 -21 23 -21 31 0 7 -5 10
-12 6 -8 -5 -10 11 -5 61 5 55 3 72 -9 86 -15 17 -14 21 7 56 19 30 25 34 27
20 2 -11 9 -16 17 -13 8 3 17 -3 20 -13 3 -10 18 -21 34 -24 42 -9 43 -29 5
-91 -43 -68 -51 -110 -30 -159 8 -20 11 -37 5 -37 -5 0 -9 -4 -9 -9 0 -5 17
-5 42 0 27 7 45 6 52 -1 5 -5 44 -10 86 -10 67 0 79 3 98 23 12 13 19 26 16
29 -3 4 -1 15 5 25 9 16 10 16 11 1 0 -12 6 -15 22 -10 14 3 19 1 14 -6 -4 -7
-2 -20 4 -29 10 -15 11 -16 6 -1 -2 9 2 19 10 22 10 4 14 -3 14 -24 l0 -30
318 0 c234 0 321 3 330 12 9 9 12 9 12 0 0 -10 86 -12 386 -11 314 1 382 3
367 13 -10 7 -31 16 -47 20 -43 10 -25 18 24 10 24 -4 50 -15 59 -25 15 -18
64 -19 1358 -19 l1343 0 1 28 c1 15 1 32 0 39 -1 7 10 15 24 19 43 11 98 -40
65 -61 -21 -13 -9 -25 25 -25 32 0 35 3 35 28 0 33 27 62 57 62 27 0 53 -31
53 -63 0 -23 4 -27 30 -27 28 0 30 2 30 39 0 22 4 43 10 46 5 3 11 1 11 -4 1
-6 3 -15 4 -21 1 -5 3 -19 4 -30 1 -14 8 -20 26 -20 23 0 25 4 25 40 0 29 4
40 15 40 11 0 15 -12 15 -45 0 -43 1 -45 30 -45 29 0 30 2 30 43 l0 43 45 0
c48 -1 57 -19 12 -24 -21 -3 -27 -9 -27 -26 0 -19 7 -25 38 -30 77 -12 82 -10
82 34 0 28 5 43 16 47 22 8 35 -9 37 -51 3 -51 32 -49 48 3 7 23 19 41 30 44
25 7 29 0 29 -45 0 -36 2 -38 30 -38 29 0 30 2 30 46 0 36 3 44 13 36 7 -6 12
-27 11 -46 -2 -35 -1 -36 32 -36 31 0 34 3 45 43 8 32 16 43 31 44 14 1 18 -3
14 -13 -3 -9 -1 -12 4 -9 6 3 10 -3 10 -14 0 -37 12 -51 41 -51 26 0 29 4 29
31 0 21 4 28 13 23 10 -6 10 -4 0 7 -17 18 -16 26 3 26 9 0 25 -19 37 -44 12
-24 25 -43 29 -43 4 0 8 20 8 45 0 25 5 45 10 45 6 0 9 -3 9 -7 -1 -5 -1 -25
0 -45 l1 -38 664 0 664 0 -9 38 c-11 46 -11 52 -1 52 15 0 43 -62 33 -74 -7
-8 -3 -12 15 -14 25 -2 35 22 12 31 -20 7 42 28 63 22 11 -4 22 -17 25 -31 7
-26 34 -34 34 -9 0 19 26 19 34 0 5 -13 59 -15 406 -15 l400 0 0 3060 0 3060
-4775 0 -4775 0 0 -3060z m9224 1512 c-7 -4 -14 -16 -17 -27 -4 -15 -5 -14 -6
8 0 15 4 27 10 27 5 0 7 6 3 13 -5 9 -3 9 7 -1 10 -9 11 -15 3 -20z m-7908
-18 c-10 -14 -35 -34 -57 -43 l-40 -18 30 -6 c17 -4 36 -5 43 -3 7 1 10 1 6
-1 -14 -8 -8 -23 10 -24 11 0 6 -5 -13 -14 l-30 -13 25 -10 c14 -6 37 -13 52
-16 20 -5 25 -10 21 -26 -6 -24 18 -49 51 -52 13 -1 24 -7 23 -12 -1 -5 12
-13 28 -17 17 -4 23 -7 16 -8 -20 -1 0 -21 25 -25 22 -3 32 -55 13 -66 -9 -6
-7 -18 9 -49 12 -23 19 -41 15 -41 -4 0 2 -7 13 -16 10 -8 13 -12 6 -9 -16 8
-13 -26 3 -37 5 -4 -3 -12 -18 -17 -15 -6 -30 -18 -33 -26 -4 -8 -12 -15 -20
-15 -17 0 -17 1 -3 -38 10 -30 37 -50 48 -35 3 4 17 14 31 22 l25 14 -27 -29
c-30 -32 -27 -47 15 -63 26 -10 35 -30 20 -45 -4 -3 -8 -13 -9 -22 -2 -11 1
-12 11 -4 16 13 31 -18 15 -34 -20 -20 -10 -29 27 -23 l37 6 -32 -19 c-31 -19
-43 -52 -22 -65 6 -4 8 -10 5 -14 -2 -5 4 -16 15 -26 15 -13 18 -27 15 -67 -3
-27 -8 -55 -12 -61 -14 -22 -10 -47 9 -52 17 -6 17 -8 -3 -35 -20 -26 -21 -32
-8 -74 8 -28 21 -48 35 -55 30 -13 50 -101 47 -213 -1 -49 2 -88 7 -88 5 0 2
-13 -6 -30 -17 -33 -9 -104 10 -97 6 3 11 -8 12 -25 1 -19 -2 -25 -7 -17 -13
21 -16 9 -24 -78 -6 -71 -5 -84 9 -89 12 -5 13 -10 5 -26 -6 -11 -9 -33 -7
-48 3 -21 -1 -31 -16 -38 -21 -9 -21 -7 -21 99 0 60 3 109 8 109 4 0 7 14 7
30 0 30 -14 41 -23 18 -3 -8 -6 -7 -6 4 -1 9 3 19 9 23 12 8 -10 57 -24 52 -6
-2 -12 -19 -12 -38 -1 -19 -5 -42 -9 -52 -6 -14 -2 -20 14 -24 12 -3 21 -13
21 -24 0 -22 -13 -25 -29 -5 -12 14 -58 13 -73 -2 -5 -5 -8 -22 -6 -38 2 -20
9 -28 26 -29 13 -1 27 5 33 14 8 12 9 10 4 -9 -4 -14 -9 -37 -12 -52 -3 -16
-12 -28 -19 -28 -8 0 -14 -5 -14 -10 0 -6 -14 -17 -31 -24 -28 -12 -34 -11
-50 5 -9 9 -19 28 -21 41 -4 22 -5 22 -12 -5 -7 -24 -4 -33 20 -58 28 -29 32
-30 101 -27 55 2 69 0 61 -9 -14 -17 -144 -15 -158 2 -6 7 -20 10 -32 7 -14
-3 -19 -1 -14 6 5 8 0 12 -13 12 -14 0 -22 -8 -27 -27 -3 -16 -7 -32 -8 -38
-8 -30 -37 66 -48 160 -13 101 -13 108 4 113 24 6 34 41 15 55 -9 7 -22 32
-30 57 -23 68 -46 117 -47 98 0 -9 4 -28 10 -43 5 -14 6 -24 1 -21 -5 3 -12
18 -15 33 -8 36 -49 123 -58 123 -3 0 -9 -8 -11 -17 -3 -10 -5 9 -6 42 -1 64
14 135 29 135 5 0 7 7 4 15 -4 8 -1 21 4 28 6 7 15 31 20 54 8 33 6 47 -6 64
-14 20 -14 23 1 34 11 7 17 26 17 48 0 20 5 39 11 43 6 3 10 -1 9 -12 -5 -40
1 -44 24 -17 20 23 26 25 39 14 9 -7 21 -29 28 -49 7 -20 25 -64 40 -96 16
-33 29 -67 29 -76 0 -10 9 -29 20 -43 11 -14 20 -30 20 -37 0 -6 4 -9 9 -6 5
3 12 -1 15 -10 5 -13 9 -14 21 -4 13 11 14 10 8 -6 -3 -10 -11 -22 -17 -26
-15 -10 -10 -71 9 -123 10 -25 15 -48 11 -52 -3 -3 -6 0 -6 8 -1 8 -10 32 -21
54 l-20 40 7 -35 c4 -19 8 -55 9 -80 5 -78 17 -160 25 -160 11 0 36 58 56 127
14 51 15 65 4 78 -19 23 -8 26 18 4 13 -10 21 -23 18 -28 -11 -17 22 -20 37
-3 20 23 28 203 10 209 -7 3 -13 -4 -13 -14 -1 -15 -4 -13 -21 10 -14 18 -30
27 -48 27 -25 0 -27 3 -23 33 l5 32 9 -27 c11 -33 18 -34 49 -9 l24 19 -23 24
c-16 18 -21 32 -17 54 3 16 1 36 -5 44 -9 13 -11 13 -20 0 -6 -8 -8 -25 -5
-36 4 -18 0 -21 -23 -21 -15 0 -21 2 -14 4 6 3 12 12 12 22 0 9 7 27 16 39 14
20 14 25 0 54 -9 17 -16 39 -16 49 0 10 -5 21 -10 24 -6 3 -8 19 -5 35 6 31
-16 90 -40 110 -14 12 -18 11 -26 -1 -13 -21 -11 -29 9 -29 15 -1 15 -2 2 -13
-16 -13 -19 -57 -7 -117 3 -19 -1 -11 -10 18 -12 38 -21 52 -34 52 -11 0 -19
5 -19 11 0 5 -12 -3 -26 -18 l-25 -28 7 25 c3 14 10 30 15 35 15 20 20 75 8
98 -7 12 -25 40 -42 62 -24 33 -22 31 16 -10 26 -27 46 -45 47 -38 0 12 -66
100 -93 122 -18 14 -16 15 -30 -29 -3 -8 -5 12 -4 44 0 39 -5 63 -14 70 -8 6
-14 18 -14 26 0 10 -10 15 -30 15 -24 0 -31 5 -34 25 -1 14 -7 28 -12 31 -5 3
-12 33 -15 67 -6 54 -5 62 11 69 13 4 22 1 29 -12 6 -10 20 -29 31 -42 21 -25
21 -25 22 -3 1 12 -7 44 -18 71 -24 63 -24 73 1 32 11 -18 22 -33 25 -33 4 0
3 5 0 10 -3 6 1 10 9 10 9 0 16 6 16 13 0 18 -21 37 -41 37 -25 0 -67 38 -89
81 -27 52 -25 55 10 17 19 -21 28 -26 23 -14 -4 11 -2 17 3 13 5 -3 11 5 12
17 2 26 -63 100 -79 90 -5 -3 -23 9 -39 28 -19 21 -30 27 -30 18 0 -10 -11 -4
-29 17 -16 17 -40 38 -53 46 -33 21 -83 11 -97 -19 -6 -13 -16 -24 -23 -24 -7
-1 -25 -18 -41 -38 -85 -113 -97 -133 -95 -157 l2 -25 35 33 c32 30 33 31 16
5 -12 -20 -14 -28 -5 -28 9 0 10 -3 1 -14 -12 -14 1 -67 22 -94 8 -9 7 -12 -3
-10 -7 2 -15 -3 -18 -11 -3 -9 0 -11 8 -6 9 6 9 3 1 -13 -17 -32 -14 -47 7
-31 15 12 16 12 6 -1 -30 -41 -25 -48 32 -46 35 1 54 5 54 13 0 15 -50 89 -58
86 -4 0 -8 50 -10 112 -3 118 11 185 41 185 20 0 31 -72 13 -85 -15 -12 -27
-65 -15 -65 5 0 6 -19 3 -42 -3 -24 0 -50 5 -58 9 -13 14 -13 41 3 36 22 40 6
5 -21 -30 -24 -33 -37 -5 -22 19 10 20 9 14 -14 -4 -16 -2 -26 5 -26 7 0 8 -8
1 -24 -5 -13 -6 -26 -4 -29 3 -3 11 -33 18 -67 12 -58 12 -62 -8 -73 -12 -6
-24 -10 -28 -9 -4 1 -9 -7 -13 -17 -3 -11 -24 -36 -47 -57 -34 -31 -39 -40
-30 -55 10 -16 9 -16 -15 -4 -28 15 -49 11 -57 -11 -3 -8 -14 -14 -24 -14 -33
0 -47 -29 -45 -87 2 -44 -1 -57 -18 -71 -51 -42 -61 -128 -25 -201 17 -34 11
-49 -17 -44 -19 4 -24 -2 -36 -41 -7 -24 -10 -53 -7 -63 7 -24 -8 -89 -26
-106 -7 -8 -22 -34 -32 -58 -10 -24 -24 -55 -31 -69 -7 -14 -15 -42 -18 -64
-5 -35 -37 -87 -37 -59 0 21 12 43 21 37 5 -3 9 -3 9 0 0 3 -5 8 -10 11 -6 4
-17 -10 -25 -29 -13 -31 -13 -41 -2 -68 15 -36 57 -79 44 -46 -3 10 -2 20 3
23 6 4 10 -5 10 -19 0 -33 15 -41 32 -17 7 10 22 21 33 23 11 2 19 10 17 16
-1 7 3 11 9 10 6 -2 16 11 21 27 15 50 49 115 59 115 18 0 9 -62 -21 -146 -16
-47 -35 -94 -41 -105 -8 -16 -7 -25 5 -38 9 -10 14 -24 12 -32 -2 -8 -7 -27
-11 -43 -3 -15 -9 -26 -12 -22 -3 3 -15 -13 -26 -37 -18 -39 -20 -41 -28 -19
-10 25 -27 29 -35 8 -3 -8 -12 -12 -20 -9 -8 3 -14 -1 -14 -8 0 -7 -8 -21 -18
-32 -16 -19 -16 -20 6 -15 12 4 20 2 16 -3 -3 -5 -13 -9 -23 -9 -12 0 -22 -12
-29 -32 -5 -18 -10 -25 -11 -15 -1 20 -21 23 -39 5 -18 -18 -15 -38 6 -32 14
5 15 4 2 -5 -19 -14 -67 -14 -75 -1 -4 7 3 8 22 4 26 -7 27 -6 13 12 -39 52
-54 64 -62 52 -6 -10 -8 -10 -8 0 0 6 -4 12 -10 12 -17 0 -11 -37 8 -51 15
-13 15 -13 -3 -2 -17 9 -20 20 -17 74 2 34 10 75 18 90 7 15 14 36 14 46 0 10
7 32 16 48 9 17 18 45 20 64 1 19 10 38 18 43 10 5 16 22 16 42 0 19 7 39 15
46 8 7 15 27 15 46 0 18 4 36 10 39 6 3 10 1 10 -6 0 -8 4 -8 15 1 8 7 15 18
15 25 0 6 10 20 21 31 12 10 25 28 30 39 5 11 14 28 21 37 17 23 3 34 -17 14
-9 -9 -19 -16 -21 -16 -10 0 18 41 31 46 21 8 27 38 14 68 -10 21 -9 34 5 71
10 25 22 45 27 45 16 0 3 75 -13 78 -26 5 -64 122 -40 122 6 0 14 17 18 37 4
21 13 44 21 52 9 8 12 23 8 38 -4 16 0 35 10 50 11 16 14 35 11 51 -4 15 -3
22 1 16 4 -6 18 -14 31 -18 20 -7 22 -4 22 31 0 32 4 39 21 40 33 3 71 43 58
60 -8 9 -8 13 0 13 6 0 10 3 10 8 -3 20 2 32 16 32 24 0 17 20 -11 30 -14 6
-23 14 -19 19 3 5 1 12 -5 16 -5 3 -10 1 -10 -4 0 -6 -3 -11 -8 -11 -4 0 -6
20 -4 45 3 30 0 45 -8 45 -8 0 -10 8 -6 23 4 16 -1 26 -15 35 -12 8 -19 23
-19 40 2 84 -32 126 -92 117 l-33 -4 33 16 c17 9 32 20 32 25 0 4 10 8 23 8
12 0 31 12 42 27 11 15 48 55 83 89 34 35 62 68 62 73 0 6 8 11 18 11 9 0 39
23 66 50 l49 50 81 0 c67 0 89 -4 128 -25 26 -14 57 -25 68 -25 12 0 19 -4 16
-9 -8 -12 71 4 88 19 9 6 18 21 22 32 3 11 8 17 11 14 3 -3 -2 -17 -11 -32z
m3524 -91 c38 -71 12 -68 -51 8 -55 66 -69 96 -52 113 9 9 76 -69 103 -121z
m2907 72 c0 -8 -4 -15 -8 -15 -11 0 -20 16 -12 24 11 11 20 7 20 -9z m4 -25
c19 0 19 -1 2 -25 -18 -25 -43 -33 -43 -15 0 6 -4 10 -10 10 -5 0 -10 -7 -10
-15 0 -8 7 -15 15 -15 9 0 12 -6 9 -15 -7 -16 -44 -21 -44 -5 0 5 7 28 16 50
12 28 21 39 31 36 8 -3 23 -6 34 -6z m842 -44 c1 -25 -1 -46 -5 -46 -5 0 -8
23 -8 52 0 63 10 58 13 -6z m223 42 c4 -6 3 -8 -4 -4 -6 3 -13 2 -16 -3 -10
-15 4 -39 25 -44 25 -7 35 -33 19 -52 -13 -16 -56 -20 -64 -6 -3 4 6 6 19 3
37 -7 43 23 11 53 -29 27 -31 36 -14 53 15 15 15 15 24 0z m-819 -65 c-2 -16
-4 -5 -4 22 0 28 2 40 4 28 2 -13 2 -35 0 -50z m144 35 l12 -33 7 35 c7 33 7
32 8 -15 l2 -50 -20 25 c-11 14 -20 31 -20 38 0 6 -4 12 -10 12 -5 0 -10 5
-10 10 0 22 19 8 31 -22z m76 -35 c-2 -16 -4 -5 -4 22 0 28 2 40 4 28 2 -13 2
-35 0 -50z m77 2 c4 -20 3 -25 -3 -15 -5 8 -11 31 -15 50 -7 41 7 13 18 -35z
m103 -2 c-2 -16 -4 -5 -4 22 0 28 2 40 4 28 2 -13 2 -35 0 -50z m55 15 c2 -21
0 -38 -4 -38 -4 0 -8 21 -7 48 1 52 6 48 11 -10z m33 13 c0 -22 -3 -34 -7 -28
-13 20 -8 67 6 67 1 0 1 -18 1 -39z m136 16 c-10 -9 -11 -8 -5 6 3 10 9 15 12
12 3 -3 0 -11 -7 -18z m49 -22 c0 -25 -3 -45 -8 -45 -4 0 -6 20 -4 45 2 25 6
45 8 45 2 0 4 -20 4 -45z m207 -22 c-2 -16 -4 -5 -4 22 0 28 2 40 4 28 2 -13
2 -35 0 -50z m-790 17 c5 -22 7 -40 3 -40 -4 0 -12 18 -18 40 -5 22 -7 40 -3
40 4 0 12 -18 18 -40z m677 20 c16 -57 18 -65 13 -59 -13 12 -37 79 -28 79 5
0 12 -9 15 -20z m198 -14 c4 -6 8 -18 8 -26 0 -9 -7 -5 -17 10 -9 14 -24 31
-33 38 -12 11 -11 11 10 1 14 -7 28 -17 32 -23z m-616 16 c17 -11 26 -49 15
-57 -6 -3 -9 0 -6 7 3 8 -4 24 -15 36 -20 21 -17 29 6 14z m-3560 -30 c13 -8
25 -52 15 -52 -13 0 -51 46 -44 53 8 9 15 9 29 -1z m3851 -14 c-3 -8 -6 -5 -6
6 -1 11 2 17 5 13 3 -3 4 -12 1 -19z m606 -35 c-7 -18 -9 -15 -16 27 -6 34 -6
34 7 11 8 -14 12 -31 9 -38z m-4887 -23 l14 -35 -25 30 c-26 32 -32 49 -14 43
6 -2 17 -19 25 -38z m804 8 l23 -33 -31 29 c-34 31 -37 36 -24 36 5 0 19 -15
32 -32z m3557 16 c-3 -3 -12 -4 -19 -1 -8 3 -5 6 6 6 11 1 17 -2 13 -5z
m-8307 -14 c-8 -5 -19 -10 -25 -10 -5 0 -3 5 5 10 8 5 20 10 25 10 6 0 3 -5
-5 -10z m7852 -2 c-5 -7 -12 -24 -15 -38 l-4 -25 -2 26 c0 14 4 30 11 37 16
16 23 15 10 0z m-3938 -7 c3 -5 -1 -11 -9 -14 -9 -4 -12 -1 -8 9 6 16 10 17
17 5z m4013 -53 c-2 -13 -4 -3 -4 22 0 25 2 35 4 23 2 -13 2 -33 0 -45z m41
37 c-3 -3 -9 2 -12 12 -6 14 -5 15 5 6 7 -7 10 -15 7 -18z m19 3 c-3 -8 -6 -5
-6 6 -1 11 2 17 5 13 3 -3 4 -12 1 -19z m36 2 c3 -11 1 -18 -4 -14 -5 3 -9 12
-9 20 0 20 7 17 13 -6z m-8063 6 c0 -2 -8 -10 -17 -17 -16 -13 -17 -12 -4 4
13 16 21 21 21 13z m8107 -48 c-2 -13 -4 -5 -4 17 -1 22 1 32 4 23 2 -10 2
-28 0 -40z m-6706 12 c-23 -17 -46 -28 -51 -25 -5 3 -11 -3 -14 -13 -3 -9 -16
-24 -27 -32 -12 -8 -36 -26 -53 -39 -17 -13 -5 1 27 32 31 31 60 56 63 56 4 0
10 3 13 9 6 10 60 39 75 41 5 1 -10 -13 -33 -29z m6268 8 c12 -7 21 -22 21
-33 -1 -20 -1 -20 -18 1 -25 29 -55 44 -91 44 -30 0 -71 -29 -71 -51 0 -5 -4
-8 -9 -4 -6 3 -11 -16 -13 -42 -3 -50 14 -88 56 -125 28 -26 4 -22 -29 4 -69
54 -64 158 11 209 32 22 105 21 143 -3z m1188 -25 c-3 -10 -5 -2 -5 17 0 19 2
27 5 18 2 -10 2 -26 0 -35z m-5802 23 c17 -12 14 -14 -33 -17 -52 -4 -53 -4
-31 14 26 21 39 21 64 3z m1242 -23 c-3 -10 -5 -4 -5 12 0 17 2 24 5 18 2 -7
2 -21 0 -30z m3840 0 c-3 -10 -5 -4 -5 12 0 17 2 24 5 18 2 -7 2 -21 0 -30z
m-110 5 c-3 -8 -6 -5 -6 6 -1 11 2 17 5 13 3 -3 4 -12 1 -19z m-270 -45 c-16
-4 -18 -14 -15 -68 2 -52 0 -63 -12 -62 -12 1 -15 16 -15 69 l0 68 30 -1 c18
-1 23 -3 12 -6z m80 -100 c-2 -21 -4 -4 -4 37 0 41 2 58 4 38 2 -21 2 -55 0
-75z m78 49 l30 -47 6 50 c6 48 6 48 7 -19 2 -74 1 -74 -42 -11 l-28 40 4 -47
c2 -28 -1 -48 -7 -48 -6 0 -9 23 -7 55 3 34 -1 61 -8 71 -10 12 -10 13 1 9 8
-3 28 -27 44 -53z m108 51 c-21 -4 -23 -10 -23 -64 0 -58 0 -59 28 -59 51 0
66 38 38 93 -16 29 -7 37 14 11 19 -22 16 -70 -5 -94 -12 -13 -31 -20 -54 -20
l-36 0 0 68 0 68 30 1 c21 0 23 -1 8 -4z m317 -38 c4 -5 10 -22 14 -37 6 -27
26 -39 26 -16 0 6 3 9 6 6 3 -4 0 -16 -6 -29 l-13 -23 -15 29 -15 29 -14 -28
c-8 -15 -16 -26 -18 -24 -10 10 -52 128 -46 128 4 0 17 -24 30 -52 l23 -53 13
30 c7 17 10 32 6 35 -12 8 -20 37 -13 45 4 4 9 -1 11 -12 2 -10 7 -22 11 -28z
m215 -23 c0 -39 -4 -69 -10 -69 -6 0 -10 30 -10 69 0 39 4 68 10 68 6 0 10
-29 10 -68z m77 7 c-3 -44 0 -64 10 -70 10 -7 9 -9 -4 -9 -15 0 -18 9 -18 58
0 32 -5 63 -12 70 -9 9 -8 12 8 12 17 0 19 -6 16 -61z m76 45 c43 -30 16 -125
-35 -123 -14 0 -13 2 5 9 34 14 49 54 31 86 -7 15 -23 30 -34 35 -13 5 -15 8
-5 8 9 1 26 -6 38 -15z m-904 -10 c3 -9 1 -23 -5 -32 -9 -15 -10 -15 -5 2 4
10 1 25 -5 32 -7 9 -8 14 -1 14 5 0 13 -7 16 -16z m313 -6 c-3 -8 -6 -5 -6 6
-1 11 2 17 5 13 3 -3 4 -12 1 -19z m98 -35 c0 -56 1 -58 27 -58 14 1 24 -3 22
-7 -3 -5 -20 -8 -37 -6 l-32 2 3 63 c5 79 17 83 17 6z m195 20 c-11 -17 -11
-17 -6 0 3 10 6 24 7 30 0 9 2 9 5 0 3 -7 0 -20 -6 -30z m83 -22 c15 -33 27
-62 27 -65 0 -3 -17 -5 -37 -5 -31 2 -33 3 -10 6 15 2 27 8 27 12 0 19 -42 91
-50 86 -6 -3 -7 1 -4 9 10 26 18 19 47 -43z m-7899 5 c-3 -15 -8 -25 -11 -23
-2 3 -1 17 3 31 3 15 8 25 11 23 2 -3 1 -17 -3 -31z m7094 -21 c3 -46 1 -52
-27 -68 -41 -24 -48 -21 -17 8 18 16 25 31 22 47 -3 13 -5 28 -5 35 -1 6 -18
16 -38 21 l-38 11 50 -2 50 -2 3 -50z m462 -43 c16 2 27 1 24 -4 -3 -4 -18 -8
-35 -8 -28 0 -29 1 -27 48 l1 47 4 -44 c4 -41 6 -43 33 -39z m-7680 64 c0 -2
-8 -10 -17 -17 -16 -13 -17 -12 -4 4 13 16 21 21 21 13z m7955 -26 c-19 -36
-19 -38 3 -43 10 -3 6 -5 -11 -6 l-27 -1 20 40 c11 22 23 40 25 40 3 0 -1 -13
-10 -30z m-5180 11 c3 -5 1 -12 -5 -16 -5 -3 -10 1 -10 9 0 18 6 21 15 7z
m4602 -90 c20 -12 13 -14 -12 -5 -20 8 -76 89 -68 98 4 4 19 -14 34 -38 16
-24 36 -49 46 -55z m-5008 79 c4 0 7 -8 8 -18 1 -14 -6 -18 -36 -17 -30 0 -37
3 -33 15 8 20 24 31 40 25 8 -3 17 -5 21 -5z m-341 -34 c7 1 51 -16 62 -23 4
-4 7 -30 9 -105 1 -34 8 -55 27 -78 26 -30 26 -31 8 -45 -11 -8 -15 -15 -11
-15 4 0 3 -9 -3 -19 -9 -17 -14 -18 -40 -9 -17 6 -30 17 -30 27 0 9 -7 27 -16
39 -11 16 -17 52 -20 116 -2 51 -8 106 -14 122 -10 27 -9 28 5 9 9 -11 19 -19
23 -19z m-380 -37 c9 -16 12 -49 9 -97 -3 -47 0 -78 8 -89 11 -14 14 -9 20 36
8 58 18 60 20 3 3 -73 5 -87 13 -75 10 15 19 8 61 -47 19 -25 41 -49 48 -53
17 -11 7 -28 -12 -20 -9 3 -21 1 -28 -5 -6 -5 -23 -13 -37 -17 -14 -4 -31 -15
-38 -24 -11 -13 -12 -5 -7 52 3 43 2 66 -4 63 -5 -4 -12 8 -16 25 -4 19 -15
33 -27 37 -18 4 -19 11 -15 91 2 47 1 95 -4 106 -4 11 -8 16 -8 10 -1 -11 -21
15 -21 28 0 16 25 0 38 -24z m692 21 c0 -5 -5 -10 -11 -10 -5 0 -7 5 -4 10 3
6 8 10 11 10 2 0 4 -4 4 -10z m47 -7 c-3 -5 0 -19 5 -33 7 -20 11 -22 18 -10
5 8 10 10 10 4 0 -22 -29 -38 -44 -25 -12 10 -16 8 -22 -11 -4 -13 -9 -29 -10
-36 -4 -20 -11 -25 -24 -17 -9 5 -9 10 -1 18 17 17 13 46 -9 59 -11 7 -20 18
-20 25 0 17 5 16 41 -2 28 -15 30 -15 39 10 5 14 12 25 15 25 4 0 4 -3 2 -7z
m-807 -15 c0 -7 -5 -20 -10 -28 -8 -12 -10 -9 -10 13 0 15 5 27 10 27 6 0 10
-6 10 -12z m355 -14 c9 -9 14 -22 11 -29 -2 -7 3 -12 12 -11 9 0 22 -10 29
-24 15 -29 18 -134 3 -110 -8 12 -12 11 -30 -8 -14 -15 -28 -21 -41 -17 -23 8
-24 -2 -2 -27 15 -17 15 -18 0 -18 -10 0 -17 7 -17 16 0 10 -6 14 -15 11 -18
-7 -21 -2 -30 46 l-8 39 31 -16 c37 -19 52 -20 52 -3 0 7 9 20 20 30 40 34 12
57 -46 39 -31 -9 -36 -8 -59 20 -31 37 -31 40 3 60 34 22 66 23 87 2z m5192 0
c-3 -3 -12 -4 -19 -1 -8 3 -5 6 6 6 11 1 17 -2 13 -5z m-3465 -36 c18 -13 51
-32 72 -42 45 -24 67 -56 37 -56 -12 0 -21 9 -25 24 -5 20 -18 28 -62 41 -31
9 -58 14 -61 11 -7 -7 -33 20 -33 33 0 18 35 12 72 -11z m-1965 -10 c-3 -8 -6
-5 -6 6 -1 11 2 17 5 13 3 -3 4 -12 1 -19z m2253 15 c-8 -3 -24 -10 -35 -15
-20 -9 -20 -9 -1 6 11 9 27 16 35 15 14 0 14 -1 1 -6z m145 -3 c3 -5 2 -10 -4
-10 -5 0 -13 5 -16 10 -3 6 -2 10 4 10 5 0 13 -4 16 -10z m-2528 -22 c-3 -8
-6 -5 -6 6 -1 11 2 17 5 13 3 -3 4 -12 1 -19z m823 -8 c0 -5 -7 -10 -15 -10
-8 0 -15 5 -15 10 0 6 7 10 15 10 8 0 15 -4 15 -10z m-783 -62 c-2 -13 -4 -5
-4 17 -1 22 1 32 4 23 2 -10 2 -28 0 -40z m1029 37 c-11 -8 -25 -15 -30 -15
-6 1 0 7 14 15 32 19 40 18 16 0z m-256 -24 c13 -25 13 -31 -2 -31 -23 0 -41
18 -35 34 9 22 24 20 37 -3z m1179 -36 c1 -17 -1 -17 -9 -5 -5 8 -9 26 -9 40
0 23 1 23 9 5 5 -11 9 -29 9 -40z m386 29 c16 -25 16 -25 -5 -14 -11 6 -18 15
-15 20 3 4 -1 11 -7 13 -8 4 -9 6 -2 6 7 1 19 -11 29 -25z m115 11 c0 -8 -4
-15 -10 -15 -5 0 -10 7 -10 15 0 8 5 15 10 15 6 0 10 -7 10 -15z m3164 -6 c-3
-5 1 -9 8 -9 14 -1 -21 -24 -37 -25 -5 0 -15 4 -21 10 -8 7 -6 15 8 27 19 17
53 14 42 -3z m-6500 -4 c3 -8 1 -15 -4 -15 -6 0 -10 7 -10 15 0 8 2 15 4 15 2
0 6 -7 10 -15z m2939 -6 c3 -13 1 -19 -6 -16 -15 5 -22 37 -9 37 5 0 12 -9 15
-21z m265 -31 l21 -32 -29 -17 c-16 -10 -46 -18 -68 -17 -22 0 -45 -3 -51 -6
-6 -4 -11 -3 -11 2 0 6 11 13 25 16 14 4 25 14 25 23 0 16 44 63 60 63 4 0 17
-14 28 -32z m-414 -36 c-17 -26 -13 -38 11 -29 8 4 15 16 15 27 0 17 2 19 14
8 19 -18 0 -58 -29 -58 -11 0 -27 -6 -34 -12 -10 -11 -11 -9 -5 6 5 14 4 17
-5 12 -13 -8 -8 26 12 78 10 27 11 27 24 10 11 -15 10 -22 -3 -42z m63 36 c-3
-8 -6 -5 -6 6 -1 11 2 17 5 13 3 -3 4 -12 1 -19z m-2037 -10 c0 -10 12 -42 27
-71 20 -37 29 -71 31 -119 6 -95 -5 -158 -26 -158 -13 0 -14 -2 -3 -9 9 -6 10
-14 3 -27 -5 -11 -7 -25 -5 -31 10 -27 -15 -11 -27 17 -7 16 -17 27 -22 24 -6
-4 -7 2 -3 16 5 15 4 20 -4 16 -6 -4 -11 -15 -11 -24 0 -15 -2 -15 -10 -2 -5
8 -10 24 -10 35 0 12 -11 25 -27 33 -35 16 -44 15 -37 -3 4 -9 1 -15 -7 -15
-9 0 -15 13 -15 38 -1 20 0 30 3 21 4 -16 7 -16 36 -1 50 23 59 33 47 47 -10
12 -54 3 -86 -17 -15 -10 -38 17 -31 36 6 14 -13 80 -27 93 -4 4 -11 1 -16 -7
-8 -13 -10 -12 -10 2 0 10 13 24 30 33 42 22 103 2 123 -40 l15 -30 -2 52 c-1
41 4 56 22 75 12 14 20 27 17 30 -3 2 2 5 10 5 8 0 15 -9 15 -19z m2466 -37
l3 -53 -31 6 c-17 3 -39 6 -49 6 -11 0 -19 5 -19 10 0 6 8 10 19 10 22 0 44
23 33 36 -4 4 0 3 9 -4 22 -16 30 -5 18 25 -6 18 -6 24 2 21 7 -2 13 -28 15
-57z m1729 39 c-3 -5 -12 -10 -18 -10 -7 0 -6 4 3 10 19 12 23 12 15 0z
m-2576 -7 c-3 -20 2 -34 11 -28 6 4 7 12 3 18 -5 8 -2 8 9 0 8 -7 17 -12 19
-10 2 1 3 0 2 -2 -2 -2 3 -11 10 -19 8 -11 8 -14 0 -9 -6 4 -14 3 -18 -3 -3
-5 1 -10 9 -10 8 0 18 5 21 11 11 16 42 -22 38 -46 -2 -11 -1 -14 3 -7 8 18
27 15 20 -4 -3 -8 1 -22 9 -31 21 -21 14 -37 -18 -41 -15 -2 -29 -11 -32 -23
-5 -14 -12 -18 -26 -14 -16 5 -19 1 -19 -22 0 -16 8 -36 18 -44 17 -15 21 -14
47 7 15 12 35 20 43 17 11 -5 13 0 8 18 -3 13 -3 18 0 12 4 -9 11 -10 24 -3
14 8 19 5 23 -11 3 -12 10 -18 16 -14 7 3 8 0 5 -9 -8 -22 18 -77 34 -71 7 3
10 0 7 -5 -3 -6 0 -11 7 -12 14 -1 30 -5 38 -8 21 -8 46 -7 51 1 3 6 8 0 11
-14 4 -20 2 -24 -11 -19 -13 5 -14 3 -4 -10 7 -8 10 -18 6 -22 -4 -4 -1 -11 7
-17 12 -7 11 -8 -5 -6 -11 2 -33 9 -48 15 -16 7 -30 12 -33 12 -4 0 -44 38
-44 43 -4 36 -23 60 -32 38 -1 -4 -13 -12 -25 -15 -19 -6 -23 -4 -23 14 0 16
-5 21 -22 18 -31 -4 -34 -37 -8 -66 23 -25 16 -54 -15 -58 -9 -1 -14 0 -11 3
3 3 0 15 -6 26 l-11 21 -8 -22 c-11 -29 -23 -28 -37 3 -7 15 -20 25 -32 25
-12 0 -18 -4 -15 -10 3 -5 2 -10 -4 -10 -19 0 -22 20 -4 26 10 3 28 11 41 17
21 10 21 12 6 29 -16 17 -49 18 -73 4 -9 -6 -22 101 -26 228 -2 66 -6 82 -23
96 -20 16 -19 17 34 19 30 1 54 -2 53 -6z m591 -8 c-7 -9 -15 -13 -17 -11 -7
7 7 26 19 26 6 0 6 -6 -2 -15z m-108 -16 c-12 -5 -22 -13 -22 -19 0 -15 -17
-12 -23 4 -4 10 -1 13 8 9 8 -3 17 2 21 10 3 9 12 13 21 10 13 -5 12 -8 -5
-14z m695 -21 c-3 -8 -6 -5 -6 6 -1 11 2 17 5 13 3 -3 4 -12 1 -19z m-617 -63
c0 -15 -38 -40 -48 -31 -3 3 0 6 8 6 10 0 10 3 -1 17 -13 15 -12 15 10 3 21
-11 23 -10 18 4 -4 9 -2 16 3 16 6 0 10 -7 10 -15z m180 4 c0 -4 -21 -7 -47
-6 -29 0 -40 3 -28 7 26 9 75 8 75 -1z m3271 -3 c5 3 9 0 9 -5 0 -6 7 -11 17
-11 13 0 11 -4 -7 -20 -16 -14 -18 -20 -9 -20 8 0 21 6 27 12 22 22 59 -38 72
-114 7 -38 14 -68 17 -68 3 0 12 8 19 18 12 15 13 15 14 1 0 -9 -7 -19 -15
-23 -18 -7 -20 -37 -2 -55 10 -10 7 -10 -13 -3 -21 8 -24 15 -22 45 3 26 -2
40 -19 56 -12 11 -26 18 -31 15 -14 -9 -9 8 9 28 15 17 15 19 -2 38 -10 11
-33 25 -51 32 -19 7 -34 16 -34 21 0 5 -7 4 -15 -3 -12 -10 -15 -10 -15 4 0
26 -19 18 -27 -11 l-7 -28 -7 25 -7 25 -1 -24 c-1 -20 -3 -21 -16 -11 -11 9
-15 9 -15 1 0 -6 -11 -16 -25 -21 -23 -9 -24 -14 -22 -67 1 -32 6 -61 11 -65
6 -4 5 -19 -1 -40 l-10 -33 -8 55 c-4 30 -17 71 -28 91 -20 34 -20 36 -3 80
20 51 61 88 79 70 15 -15 30 -14 21 1 -5 7 -1 9 13 6 12 -3 27 -2 34 2 7 5 23
4 37 -1 13 -5 28 -7 33 -3z m733 -12 c3 -9 5 -32 5 -52 -1 -27 -3 -30 -6 -13
-4 19 -7 21 -14 10 -6 -9 -9 0 -9 29 0 42 12 56 24 26z m-3570 -9 c-4 -8 -10
-15 -15 -15 -5 0 -9 7 -9 15 0 8 7 15 15 15 9 0 12 -6 9 -15z m3162 -21 c-13
-12 -16 -12 -16 -2 0 19 24 42 28 28 2 -5 -4 -17 -12 -26z m-5230 3 c9 -8 -44
-25 -56 -17 -20 12 -1 31 27 26 14 -3 27 -7 29 -9z m1269 4 c27 10 38 10 47 1
9 -9 8 -12 -5 -12 -9 0 -17 -7 -17 -15 0 -8 -6 -15 -14 -15 -8 0 -21 -3 -29
-6 -17 -6 -47 21 -47 43 0 12 3 13 15 3 11 -9 22 -9 50 1z m762 -29 c2 -18 -1
-31 -5 -28 -4 2 -23 -8 -42 -24 -34 -27 -34 -28 -21 -70 7 -23 10 -45 7 -48
-3 -3 -6 2 -6 11 0 10 -4 17 -9 17 -5 0 -14 13 -20 28 -7 16 -25 36 -40 45
-32 19 -48 62 -31 82 7 8 37 16 68 18 95 6 96 6 99 -31z m-1434 8 c-5 -19 -23
-29 -23 -12 0 7 20 32 26 32 1 0 0 -9 -3 -20z m5094 -17 c-3 -10 -5 -4 -5 12
0 17 2 24 5 18 2 -7 2 -21 0 -30z m-5812 17 c3 -5 2 -10 -4 -10 -5 0 -13 5
-16 10 -3 6 -2 10 4 10 5 0 13 -4 16 -10z m1313 -2 c-3 -7 -13 -15 -23 -16
-15 -4 -16 -2 -4 12 17 19 32 21 27 4z m924 1 c21 -11 21 -12 -3 -24 -26 -14
-42 -3 -32 22 6 16 9 16 35 2z m-2692 -8 c0 -18 -18 -21 -30 -6 -10 13 -9 15
9 15 11 0 21 -4 21 -9z m332 -25 c16 10 148 13 154 3 7 -11 -143 -37 -201 -34
-14 0 -25 -3 -25 -7 0 -15 -39 -8 -49 10 -9 15 -10 15 -11 -5 0 -26 -15 -37
-55 -38 -56 -3 -60 -5 -78 -45 -20 -47 -29 -52 -17 -10 12 43 15 46 68 71 26
12 58 31 72 40 14 10 40 20 58 24 25 5 32 3 32 -9 0 -9 4 -16 9 -16 6 0 8 10
6 23 -4 21 -3 21 10 3 8 -11 19 -15 27 -10z m1686 -21 c3 -36 2 -38 -12 -25
-8 8 -18 28 -22 43 -6 25 -4 28 12 25 14 -2 20 -13 22 -43z m-2423 -16 c10
-68 2 -71 -11 -4 -5 30 -7 55 -3 55 4 0 10 -23 14 -51z m6162 19 c-3 -7 -5 -2
-5 12 0 14 2 19 5 13 2 -7 2 -19 0 -25z m-3827 16 c0 -3 -11 -15 -25 -26 -31
-24 -33 -45 -3 -24 31 22 41 20 26 -4 -11 -17 -10 -22 1 -29 11 -7 9 -11 -8
-21 -31 -16 -49 -6 -66 35 -21 48 -19 63 8 68 36 7 67 7 67 1z m4548 -6 c-3
-7 -13 -15 -24 -17 -16 -3 -17 -1 -5 13 16 19 34 21 29 4z m-4710 -23 c-3 -3
-9 2 -12 12 -6 14 -5 15 5 6 7 -7 10 -15 7 -18z m512 10 c4 3 7 -11 7 -30 -1
-26 -6 -35 -19 -35 -9 0 -20 -5 -24 -12 -5 -7 0 -9 14 -6 18 5 21 2 20 -18 -1
-13 -7 -24 -13 -24 -5 0 -2 -7 8 -14 12 -9 14 -15 6 -18 -23 -8 38 -93 76
-108 15 -5 20 -17 20 -44 0 -22 -4 -35 -11 -32 -7 3 -9 -10 -5 -37 10 -63 8
-70 -17 -72 -15 -1 -27 7 -37 28 -12 25 -12 28 0 23 9 -3 12 0 9 8 -3 8 -1 17
5 21 6 3 11 11 11 16 0 6 -5 7 -11 3 -13 -8 -92 -14 -84 -6 2 3 -3 11 -13 18
-16 12 -16 13 1 19 29 12 19 24 -13 15 -38 -11 -45 1 -20 33 34 43 22 53 -13
12 -25 -29 -36 -35 -42 -25 -5 8 -4 11 2 7 12 -8 32 49 31 88 0 17 9 51 21 77
11 26 21 58 21 72 0 14 5 28 10 31 6 4 8 11 5 16 -4 5 5 5 20 -1 15 -6 30 -8
35 -5z m448 -24 c-2 -21 -6 -37 -10 -35 -4 3 -12 -4 -18 -15 -15 -29 -49 -46
-63 -32 -9 9 -6 13 9 17 12 3 28 18 35 32 19 38 41 72 45 72 3 0 3 -18 2 -39z
m2094 -16 c77 -112 87 -126 95 -123 9 3 17 -1003 8 -1039 -5 -21 -9 -22 -128
-20 -67 0 -127 -1 -132 -4 -25 -14 -45 -17 -50 -8 -4 5 -3 9 2 8 4 -1 11 0 16
1 4 1 10 3 15 4 4 2 20 9 35 16 20 10 24 16 15 22 -10 6 -10 8 0 8 6 0 12 5
12 11 0 6 -7 9 -15 5 -8 -3 -20 3 -27 13 -24 33 -122 111 -140 111 -10 0 -21
-7 -24 -15 -4 -8 -18 -15 -34 -15 -15 0 -30 -6 -33 -14 -3 -8 -15 -12 -30 -9
-33 6 -60 -22 -52 -54 7 -31 -12 -21 -25 12 -7 17 -14 21 -33 18 -26 -5 -44
-42 -31 -66 3 -7 -9 3 -26 22 -29 30 -34 32 -57 22 -20 -9 -24 -17 -19 -35 8
-34 -3 -38 -28 -11 -19 23 -30 25 -135 30 -63 2 -117 9 -120 14 -3 4 -26 11
-51 15 -90 12 -191 38 -247 63 -47 20 -82 8 -100 -36 -14 -32 -14 -39 0 -63
16 -27 15 -28 -12 -43 -34 -17 -44 -38 -28 -56 9 -9 7 -9 -6 1 -16 12 -20 12
-28 -1 -6 -9 -9 -10 -9 -2 0 8 -27 13 -87 15 l-88 3 -3 392 -2 393 75 146 c72
141 88 169 64 107 -17 -41 -18 -81 -2 -87 22 -9 61 15 73 43 6 15 19 27 29 28
21 2 42 -35 36 -63 -15 -78 -15 -84 6 -84 12 0 34 14 50 31 27 29 30 30 51 15
30 -21 38 -20 38 5 0 11 5 17 10 14 6 -3 10 2 10 11 0 10 2 15 5 12 3 -3 2
-24 -3 -46 -8 -35 -7 -41 9 -45 12 -3 17 -11 13 -20 -3 -8 -1 -18 5 -22 6 -3
9 0 5 8 -5 15 22 31 37 21 5 -3 9 6 9 20 0 34 15 40 52 22 23 -12 34 -13 44
-5 7 6 13 14 12 17 -2 22 5 64 9 50 5 -18 14 -22 46 -19 11 2 17 -5 17 -18 0
-16 6 -21 25 -21 16 0 25 6 25 15 0 8 4 15 9 15 9 0 -8 -85 -24 -122 -5 -12
-2 -20 9 -24 22 -9 20 -18 -13 -64 -21 -30 -33 -64 -46 -134 -14 -83 -21 -98
-50 -128 -34 -34 -34 -36 -41 -145 -6 -110 5 -183 27 -183 12 0 12 3 -6 36 -8
16 -15 46 -15 68 l0 39 21 -27 c13 -17 30 -26 49 -26 36 0 44 21 35 94 -6 47
-4 58 16 85 21 28 21 32 7 48 -15 16 -15 21 0 53 16 35 16 35 19 8 7 -48 53
-64 53 -18 0 10 7 25 15 34 8 8 15 19 15 25 0 6 9 11 19 11 21 0 36 27 18 33
-7 2 26 10 73 17 47 7 92 16 101 21 10 5 20 28 24 56 4 26 12 51 18 55 14 8
-17 186 -43 244 -16 38 -16 42 -1 39 9 -2 29 -4 44 -4 16 -1 26 -5 22 -10 -3
-5 -1 -12 5 -16 6 -4 8 -11 5 -16 -3 -5 1 -6 9 -3 10 4 16 -4 21 -26 7 -32 34
-38 47 -10 5 12 7 12 7 -2 1 -22 21 -24 21 -3 0 17 11 19 26 7 5 -5 20 -6 34
-1 19 5 21 7 6 8 -29 1 -12 13 26 17 17 2 37 9 42 14 17 17 23 12 46 -34 14
-30 26 -43 36 -39 8 3 14 0 14 -6 0 -5 9 -15 21 -21 17 -9 23 -8 35 7 7 10 14
28 14 41 0 13 4 20 10 17 15 -9 13 0 -20 77 -24 55 -28 73 -18 80 13 7 20 1
44 -38 9 -16 15 -17 38 -6 24 10 25 14 15 34 -9 18 -8 24 5 34 16 11 15 16 -8
63 -42 81 -36 83 16 6z m1064 40 c-1 -9 1 -38 4 -65 7 -57 -5 -57 -20 0 -8 28
-8 46 0 60 13 24 19 26 16 5z m238 -16 c11 -26 11 -39 0 -77 -8 -25 -15 -47
-17 -48 -1 -1 -2 33 -2 77 -1 43 1 79 3 79 1 0 9 -14 16 -31z m-6116 -44 l1
-20 -9 20 c-5 11 -8 31 -8 45 l0 25 8 -25 c4 -14 8 -34 8 -45z m6367 34 c4 -5
-1 -19 -10 -29 -10 -11 -15 -26 -12 -35 4 -8 2 -15 -3 -15 -9 0 -12 14 -12 60
0 11 0 22 1 25 2 9 30 5 36 -6z m187 -51 c2 -34 -2 -56 -10 -65 -8 -8 -9 -13
-3 -13 6 0 11 -5 11 -11 0 -5 -4 -8 -9 -5 -5 4 -7 -2 -5 -11 3 -10 -4 -31 -14
-46 -17 -25 -20 -26 -26 -11 -4 10 -3 20 2 23 10 7 24 70 27 126 4 61 4 65 14
65 5 0 11 -23 13 -52z m-5489 -17 c-3 -10 0 -22 6 -25 5 -4 8 -13 4 -21 -3 -8
0 -15 6 -15 14 0 15 -37 1 -45 -5 -3 -10 2 -10 12 0 11 -11 42 -25 70 -16 30
-23 57 -19 68 7 17 9 17 25 -3 9 -12 15 -30 12 -41z m4692 50 c3 -5 2 -12 -3
-15 -5 -3 -9 1 -9 9 0 17 3 19 12 6z m46 -61 l-9 -25 -10 25 c-7 19 -5 30 7
46 l16 22 3 -22 c2 -12 -1 -33 -7 -46z m201 -14 c7 4 8 2 4 -5 -14 -21 -26 0
-24 42 l1 42 4 -43 c3 -27 8 -40 15 -36z m-3162 23 c0 -5 -11 -9 -24 -9 -13 0
-30 -9 -37 -19 -17 -23 -50 -31 -56 -13 -3 7 4 12 17 12 13 0 24 8 27 19 7 27
73 36 73 10z m2907 15 c-3 -3 -12 -4 -19 -1 -8 3 -5 6 6 6 11 1 17 -2 13 -5z
m-3268 -37 c0 -9 -2 -9 -6 1 -2 6 -11 12 -19 12 -8 0 -14 5 -14 10 0 7 6 7 20
0 11 -6 20 -16 19 -23z m3482 6 c-12 -20 -14 -14 -5 12 4 9 9 14 11 11 3 -2 0
-13 -6 -23z m357 2 c-3 -3 -9 2 -12 12 -6 14 -5 15 5 6 7 -7 10 -15 7 -18z
m-6138 -5 c-11 -7 -12 -10 -2 -10 8 0 12 -9 10 -22 -4 -28 -20 -30 -24 -3 -5
27 3 45 18 45 9 0 8 -3 -2 -10z m783 -4 c4 -10 0 -12 -14 -9 -10 3 -16 9 -13
14 8 13 21 11 27 -5z m422 4 c3 -5 1 -10 -4 -10 -6 0 -11 5 -11 10 0 6 2 10 4
10 3 0 8 -4 11 -10z m2005 2 c0 -5 -7 -17 -15 -28 -14 -18 -14 -17 -4 9 12 27
19 34 19 19z m-1591 -15 c8 -10 7 -14 -2 -14 -8 0 -14 6 -14 14 0 7 1 13 2 13
2 0 8 -6 14 -13z m641 7 c0 -2 -9 -8 -20 -14 -15 -8 -18 -8 -14 3 4 11 34 21
34 11z m375 -4 c-3 -5 0 -10 7 -10 9 0 15 -14 16 -41 3 -34 0 -40 -15 -37 -10
2 -18 10 -19 18 0 8 -4 26 -8 39 -6 16 -4 26 5 32 18 11 22 11 14 -1z m2656
-27 c-15 -26 -37 -53 -43 -53 -3 0 -5 13 -4 29 1 17 6 27 12 24 7 -2 15 0 19
6 11 19 27 13 16 -6z m610 -8 c13 9 11 -6 -5 -37 -13 -24 -12 -26 2 -21 10 4
14 3 11 -1 -4 -4 -16 -9 -28 -11 -20 -4 -21 -1 -16 33 9 54 17 72 22 49 3 -9
9 -15 14 -12z m-4134 -53 c3 -15 0 -29 -10 -39 -16 -16 -14 -21 -33 80 l-6 32
21 -24 c12 -14 24 -35 28 -49z m188 48 c-10 -11 -21 -18 -23 -15 -3 3 3 12 14
20 27 20 30 18 9 -5z m915 -41 c0 -49 -1 -51 -22 -43 -13 4 -49 8 -81 8 -48 1
-58 4 -63 21 -4 11 -2 21 5 23 6 2 9 8 5 13 -3 5 22 9 58 9 35 0 70 5 78 10 8
5 16 10 18 10 1 0 2 -23 2 -51z m-3295 31 c-3 -5 -11 -10 -16 -10 -6 0 -7 5
-4 10 3 6 11 10 16 10 6 0 7 -4 4 -10z m4645 -2 c0 -7 3 -24 7 -38 6 -25 6
-25 -15 -6 -25 22 -29 56 -7 56 8 0 15 -6 15 -12z m980 -29 c-5 -9 -6 -20 -2
-24 4 -4 1 -6 -7 -3 -8 2 -16 19 -19 37 -3 30 -2 31 17 19 14 -9 17 -16 11
-29z m385 31 c-3 -5 -16 -10 -28 -9 -21 0 -21 1 -2 9 28 12 37 12 30 0z
m-3201 -15 c3 -9 0 -15 -9 -15 -8 0 -15 7 -15 15 0 8 4 15 9 15 5 0 11 -7 15
-15z m-2534 -14 c0 -10 -7 -21 -15 -25 -9 -3 -15 0 -15 10 0 8 5 12 10 9 6 -3
10 1 10 9 0 9 2 16 5 16 3 0 5 -9 5 -19z m2670 -8 c39 -34 38 -44 -4 -31 -26
8 -33 16 -33 34 0 30 1 30 37 -3z m3540 12 c0 -8 -4 -15 -10 -15 -5 0 -7 7 -4
15 4 8 8 15 10 15 2 0 4 -7 4 -15z m-4360 -15 c0 -5 -5 -10 -11 -10 -5 0 -7 5
-4 10 3 6 8 10 11 10 2 0 4 -4 4 -10z m770 0 c0 -5 -2 -10 -4 -10 -3 0 -8 5
-11 10 -3 6 -1 10 4 10 6 0 11 -4 11 -10z m2579 -3 c8 -10 7 -19 -5 -33 -12
-15 -17 -16 -21 -5 -5 11 -7 11 -14 0 -7 -11 -9 -9 -10 6 l0 20 -9 -20 c-8
-18 -9 -17 -9 8 -1 16 3 26 9 22 6 -3 10 -1 10 4 0 16 35 14 49 -2z m84 -3 c4
-1 12 -2 17 -3 13 -1 13 -31 1 -31 -6 0 -12 4 -16 10 -3 5 -11 7 -18 4 -7 -2
-13 4 -14 16 -1 14 2 18 10 13 7 -4 15 -8 20 -9z m-2778 -3 c3 -5 1 -12 -5
-16 -5 -3 -10 1 -10 9 0 18 6 21 15 7z m3215 -5 c0 -2 -7 -7 -16 -10 -8 -3
-12 -2 -9 4 6 10 25 14 25 6z m-3980 -23 c3 -2 -3 -9 -13 -14 -9 -6 -17 -19
-17 -29 0 -38 -16 -20 -18 21 -3 38 -2 40 20 34 13 -4 25 -10 28 -12z m82 -5
c-6 -6 -15 -8 -19 -4 -4 4 -1 11 7 16 19 12 27 3 12 -12z m35 0 c-3 -8 -6 -5
-6 6 -1 11 2 17 5 13 3 -3 4 -12 1 -19z m4213 7 c0 -8 -4 -15 -10 -15 -5 0 -7
7 -4 15 4 8 8 15 10 15 2 0 4 -7 4 -15z m-6350 -5 c0 -5 5 -10 11 -10 11 0 39
-24 39 -34 0 -14 -31 -4 -55 18 -15 14 -33 22 -40 20 -7 -3 -16 -1 -20 5 -4 7
7 11 29 11 20 0 36 -4 36 -10z m2908 -6 c-13 -13 -24 -15 -55 -9 -21 5 -42 7
-46 6 -5 -1 -6 2 -4 6 3 5 31 9 64 11 54 3 57 2 41 -14z m2802 -15 c0 -6 -4
-7 -10 -4 -5 3 -10 11 -10 16 0 6 5 7 10 4 6 -3 10 -11 10 -16z m-3650 -8 c13
-25 13 -34 0 -26 -16 10 -32 45 -21 45 6 0 15 -9 21 -19z m760 -12 c0 -15 5
-19 16 -15 8 3 12 2 9 -4 -3 -6 -15 -10 -27 -10 -17 0 -18 -3 -8 -15 14 -17 6
-50 -10 -40 -6 4 -8 11 -4 16 3 5 1 16 -5 23 -13 15 -4 49 10 40 5 -3 6 2 3
10 -3 9 -1 16 5 16 6 0 11 -9 11 -21z m204 -24 c4 -15 -1 -23 -18 -31 -25 -12
-25 -14 -11 51 7 31 15 25 29 -20z m-897 20 c0 -8 -4 -15 -9 -15 -10 0 -11 14
-1 23 9 10 10 9 10 -8z m3760 -17 c-3 -7 -5 -2 -5 12 0 14 2 19 5 13 2 -7 2
-19 0 -25z m-6093 -9 c-3 -5 3 -6 13 -2 16 6 16 5 4 -10 -12 -15 -12 -17 4
-11 13 5 16 4 11 -4 -18 -29 -56 1 -56 44 0 13 3 14 15 4 8 -7 12 -16 9 -21z
m5746 12 c0 -16 -28 -20 -40 -5 -10 12 -8 14 14 14 14 0 26 -4 26 -9z m136
-98 c6 -2 15 7 21 19 10 22 11 22 9 -7 0 -16 -23 -73 -50 -125 -27 -52 -54
-110 -60 -129 -12 -32 -13 -33 -30 -15 -10 9 -29 19 -43 20 -14 2 -32 12 -40
23 -17 25 -45 27 -63 6 -15 -19 -23 -14 -14 9 3 9 16 16 29 16 29 0 38 23 19
47 -9 10 -13 13 -10 6 4 -6 2 -14 -3 -18 -13 -7 -7 23 12 59 9 16 13 35 10 42
-3 9 2 14 16 14 12 0 21 3 21 8 0 4 18 18 40 32 23 14 38 30 35 38 -2 7 1 12
8 11 36 -4 44 1 40 29 -2 16 5 5 19 -27 13 -30 28 -56 34 -58z m-5606 87 c0
-5 -9 -10 -20 -10 -11 0 -20 5 -20 10 0 6 9 10 20 10 11 0 20 -4 20 -10z
m3230 -80 c0 -49 -2 -90 -4 -90 -3 0 -23 19 -45 43 -40 42 -47 60 -35 92 6 15
55 43 77 45 4 0 7 -40 7 -90z m3550 39 c0 -5 -11 2 -25 15 -14 13 -25 27 -25
31 0 5 11 -2 25 -15 14 -13 25 -27 25 -31z m-4013 -1 c-3 -7 -5 -2 -5 12 0 14
2 19 5 13 2 -7 2 -19 0 -25z m3493 4 c0 -8 -1 -13 -3 -11 -1 2 -9 12 -16 22
-12 15 -12 17 3 11 9 -3 16 -13 16 -22z m-3867 -11 c19 -32 22 -51 8 -51 -5 0
-14 14 -20 30 -11 33 -31 40 -32 13 0 -12 -2 -13 -6 -5 -5 13 13 42 26 42 4 0
14 -13 24 -29z m3427 -28 c-11 -17 -11 -17 -6 0 3 10 7 28 7 40 2 22 2 22 6 0
2 -12 -1 -30 -7 -40z m484 8 c-7 -7 -34 21 -28 31 3 5 12 1 19 -9 7 -10 12
-20 9 -22z m-7106 4 c-3 -3 -9 2 -12 12 -6 14 -5 15 5 6 7 -7 10 -15 7 -18z
m2982 -16 c0 -10 9 -24 21 -32 19 -14 19 -15 -15 -19 -19 -2 -33 -1 -31 2 2 4
-3 19 -11 34 -19 39 -18 44 11 38 16 -3 25 -11 25 -23z m754 -13 c-4 -17 -8
-42 -9 -56 -3 -35 -4 -37 -15 -19 -5 9 -7 27 -4 40 8 33 8 41 -1 61 -5 13 -2
15 15 11 18 -5 20 -10 14 -37z m1385 -44 c1 -26 7 -35 29 -43 l27 -11 -30 -10
c-16 -6 -44 -21 -62 -34 -18 -14 -46 -27 -64 -31 -29 -6 -31 -5 -24 18 4 13
15 33 25 44 9 11 20 28 23 38 4 9 13 17 21 17 17 0 26 21 26 59 0 72 26 29 29
-47z m-4239 48 c6 -11 7 -20 2 -20 -6 0 -12 9 -15 20 -3 11 -3 20 -1 20 2 0 8
-9 14 -20z m37 -2 c-3 -8 -6 -5 -6 6 -1 11 2 17 5 13 3 -3 4 -12 1 -19z m1477
-11 c-1 -9 3 -17 9 -17 6 0 3 -6 -7 -13 -15 -11 -17 -17 -7 -35 9 -18 9 -21
-3 -16 -8 3 -17 12 -20 20 -3 8 -12 14 -20 14 -11 0 -12 6 -4 34 8 25 16 33
32 32 13 -1 21 -8 20 -19z m181 3 c3 -6 -1 -7 -9 -4 -18 7 -21 14 -7 14 6 0
13 -4 16 -10z m98 -53 c-2 -4 -9 -5 -14 -2 -5 4 -9 2 -9 -4 0 -6 -7 -8 -15 -5
-8 4 -12 10 -9 15 3 5 0 9 -5 9 -6 0 -11 5 -11 11 0 5 4 8 9 5 5 -3 15 1 22
10 11 14 14 13 25 -8 7 -12 10 -26 7 -31z m124 47 c37 -10 34 -29 -4 -30 -19
0 -39 -7 -43 -15 -14 -22 -21 -4 -11 25 11 27 20 30 58 20z m4903 -22 c0 -15
-2 -15 -10 -2 -13 20 -13 33 0 25 6 -3 10 -14 10 -23z m-6773 -14 c-3 -7 -5
-2 -5 12 0 14 2 19 5 13 2 -7 2 -19 0 -25z m2473 28 c0 -2 -7 -9 -15 -16 -13
-11 -14 -10 -9 4 5 14 24 23 24 12z m-4255 -83 c-4 -25 -2 -44 5 -48 5 -3 10
-38 10 -77 0 -60 -4 -76 -22 -95 -31 -33 -39 -28 -22 12 15 38 19 101 5 109
-15 9 -23 134 -10 158 11 21 12 21 26 2 10 -13 12 -32 8 -61z m1761 51 c1 -9
0 -13 -4 -10 -3 4 -7 14 -8 22 -1 9 0 13 4 10 3 -4 7 -14 8 -22z m2537 6 c16
-19 16 -20 -1 -20 -9 0 -24 5 -32 10 -14 10 -12 15 15 30 0 0 8 -9 18 -20z
m86 -11 c-16 -10 -23 -4 -14 10 3 6 11 8 17 5 6 -4 5 -9 -3 -15z m-520 -11 c4
-13 7 -43 7 -67 -1 -40 -4 -45 -28 -52 -31 -8 -49 7 -27 23 11 7 11 11 1 15
-6 2 -10 9 -6 14 3 5 1 9 -3 9 -14 0 -6 62 9 71 22 15 38 10 47 -13z m4598 -3
c0 -8 -4 -12 -9 -9 -5 3 -6 10 -3 15 9 13 12 11 12 -6z m103 0 c6 -3 10 -12
10 -20 0 -8 7 -18 15 -23 9 -4 17 -18 19 -29 6 -28 -17 -48 -40 -35 -11 6 -13
11 -5 16 6 4 11 12 11 19 0 6 -17 -6 -38 -26 -21 -21 -42 -34 -46 -30 -4 4 -4
0 -1 -9 4 -9 2 -19 -4 -22 -6 -4 -9 11 -8 39 1 32 6 44 15 40 6 -2 12 1 13 8
0 9 2 9 6 0 2 -7 8 -13 12 -13 9 0 7 72 -2 87 -8 12 22 11 43 -2z m-5360 1 c0
-3 -4 -8 -10 -11 -5 -3 -10 -1 -10 4 0 6 5 11 10 11 6 0 10 -2 10 -4z m220 -1
c0 -2 -9 -9 -20 -15 -16 -9 -20 -8 -20 5 0 8 9 15 20 15 11 0 20 -2 20 -5z
m166 -51 c-7 -8 -15 -9 -20 -3 -13 12 -29 12 -21 -1 3 -5 4 -10 1 -10 -2 0
-12 -3 -21 -6 -15 -6 -15 -4 -4 15 8 11 19 21 25 21 6 0 18 7 25 16 12 14 14
14 19 -2 4 -10 2 -24 -4 -30z m-92 5 c-3 -5 -12 -9 -19 -9 -10 0 -12 -6 -8
-17 6 -16 4 -16 -9 -5 -14 11 -17 10 -21 -10 -4 -23 -4 -23 -6 -1 0 13 7 27
19 33 11 6 20 18 20 27 0 12 3 13 15 3 8 -7 12 -16 9 -21z m192 1 l39 -19 -42
-1 c-36 0 -42 3 -40 20 1 11 2 20 2 20 1 0 19 -9 41 -20z m1194 -21 c0 -30
-84 -66 -115 -49 -13 7 -29 9 -36 5 -8 -5 -10 -4 -5 3 10 16 43 15 49 0 5 -16
74 18 91 44 14 23 16 23 16 -3z m-400 -19 c0 -5 -5 -10 -11 -10 -5 0 -7 5 -4
10 3 6 8 10 11 10 2 0 4 -4 4 -10z m-270 -11 c0 -5 5 -7 10 -4 6 3 10 1 10 -5
0 -15 -32 -9 -38 8 -2 6 1 12 7 12 6 0 11 -5 11 -11z m325 1 c3 -6 -1 -7 -9
-4 -18 7 -21 14 -7 14 6 0 13 -4 16 -10z m-855 -26 c0 -17 -26 -19 -36 -3 -7
12 15 31 28 23 4 -3 8 -12 8 -20z m755 5 c6 -17 9 -18 16 -8 4 7 10 11 13 9 2
-3 -4 -16 -15 -29 -18 -22 -19 -22 -19 -3 0 12 -4 24 -10 27 -13 8 -13 25 -1
25 5 0 13 -10 16 -21z m2535 -3 c0 -8 -4 -18 -10 -21 -5 -3 -10 -22 -10 -41 0
-19 -2 -34 -4 -34 -14 0 -36 14 -36 22 0 5 4 7 9 4 11 -7 21 17 21 48 0 13 3
26 7 29 11 12 23 8 23 -7z m1575 -46 c-1 -27 -4 -53 -8 -56 -4 -4 -7 0 -7 9 0
10 -3 17 -6 17 -9 0 -33 -27 -28 -32 9 -10 -24 -28 -39 -22 -14 5 -11 11 13
37 17 18 30 36 30 41 0 8 39 56 45 56 1 0 1 -22 0 -50z m-5128 34 c-3 -3 -12
-4 -19 -1 -8 3 -5 6 6 6 11 1 17 -2 13 -5z m1193 -4 c0 -5 -5 -10 -11 -10 -5
0 -7 5 -4 10 3 6 8 10 11 10 2 0 4 -4 4 -10z m2433 -4 c4 -10 0 -12 -14 -9
-10 3 -16 9 -13 14 8 13 21 11 27 -5z m-3548 -5 c9 -16 -9 -18 -35 -5 l-25 14
27 0 c15 0 29 -4 33 -9z m747 -21 c4 -27 2 -29 -19 -24 -19 5 -22 3 -16 -12 4
-11 3 -15 -4 -11 -6 4 -13 17 -15 30 -4 19 -1 23 12 20 10 -3 20 2 23 11 9 23
14 20 19 -14z m297 -1 c6 -17 6 -27 1 -24 -6 4 -10 2 -10 -2 0 -5 -13 -17 -30
-26 -25 -15 -30 -16 -30 -4 0 8 11 18 25 21 22 6 24 9 15 27 -6 11 -15 17 -21
14 -5 -4 -9 0 -9 7 0 8 11 15 24 16 19 1 27 -5 35 -29z m-763 -14 c-3 -8 2
-16 10 -19 21 -8 17 -40 -7 -62 -12 -10 -28 -32 -36 -48 -14 -27 -16 -28 -26
-11 -5 10 -10 33 -9 51 1 23 -4 34 -16 37 -15 3 -15 5 3 11 42 16 66 31 56 34
-5 2 -8 9 -5 17 3 8 12 11 20 8 9 -3 13 -11 10 -18z m221 3 c-3 -8 -6 -5 -6 6
-1 11 2 17 5 13 3 -3 4 -12 1 -19z m3000 16 c-3 -3 -12 -4 -19 -1 -8 3 -5 6 6
6 11 1 17 -2 13 -5z m-3736 -16 c0 -10 2 -10 6 0 2 6 9 12 15 12 6 0 7 -7 4
-16 -3 -8 -2 -12 4 -9 10 6 12 -1 13 -42 0 -12 3 -20 8 -18 13 9 21 -34 14
-75 -5 -28 -3 -40 5 -40 7 0 10 -7 6 -17 -4 -9 -2 -20 5 -23 8 -6 8 -13 0 -28
-9 -17 -16 -20 -34 -13 -33 13 -98 11 -90 -2 3 -6 1 -7 -6 -3 -6 4 -9 11 -6
16 3 4 -2 10 -10 14 -12 4 -15 24 -15 89 0 47 3 99 6 116 6 26 10 30 30 25 19
-5 23 -3 18 10 -4 11 -1 16 10 16 9 0 16 -6 17 -12z m1203 -3 c3 -8 1 -15 -4
-15 -6 0 -10 7 -10 15 0 8 2 15 4 15 2 0 6 -7 10 -15z m3769 1 c4 -10 1 -13
-9 -9 -7 3 -14 9 -14 14 0 14 17 10 23 -5z m-4576 -12 c-3 -3 -12 -4 -19 -1
-8 3 -5 6 6 6 11 1 17 -2 13 -5z m60 0 c-3 -3 -12 -4 -19 -1 -8 3 -5 6 6 6 11
1 17 -2 13 -5z m-3267 -19 c-10 -12 -8 -14 8 -10 15 3 18 -1 14 -21 -4 -21 0
-24 24 -25 26 -2 26 -2 5 -6 -22 -4 -23 -8 -17 -56 5 -39 4 -48 -5 -34 -5 9
-14 15 -18 13 -4 -3 -5 11 -3 31 l4 35 -48 -3 c-27 -1 -50 2 -52 7 -1 5 18 10
43 12 27 2 43 7 39 13 -3 6 -26 8 -52 5 -47 -5 -47 -5 -10 5 24 7 35 15 32 24
-5 12 9 20 40 24 5 0 3 -6 -4 -14z m6595 -5 c-5 -9 -55 -1 -55 9 0 4 13 6 30
3 16 -2 28 -8 25 -12z m-92 -50 c-4 -14 0 -20 12 -20 14 0 16 7 13 30 -4 24
-1 30 11 27 9 -2 14 -10 12 -18 -2 -8 -3 -34 -2 -59 l2 -45 -21 23 c-11 12
-27 22 -35 22 -18 0 -35 31 -35 65 0 25 1 25 24 10 16 -11 22 -22 19 -35z
m1299 -2 c-8 -8 -9 -4 -5 13 4 13 8 18 11 10 2 -7 -1 -18 -6 -23z m-4282 -34
c-17 -20 -37 -48 -43 -63 -13 -29 -53 -67 -79 -76 -9 -3 -20 -15 -23 -25 -3
-11 -9 -19 -13 -19 -20 3 -23 -3 -11 -17 12 -15 11 -16 -6 -11 -21 6 -75 -32
-75 -53 0 -6 -7 -13 -15 -16 -8 -4 -12 -10 -9 -15 3 -5 -5 -22 -17 -37 l-22
-27 7 30 c11 46 45 89 176 224 66 69 120 129 120 133 0 4 9 8 21 8 19 0 19 -3
-11 -36z m-4062 -24 c-2 -9 -15 -15 -33 -15 -26 0 -31 -4 -36 -35 l-6 -35 -2
37 c-1 47 34 90 62 73 9 -5 16 -17 15 -25z m4118 24 c-3 -9 -6 -18 -6 -20 0
-2 -4 -4 -9 -4 -5 0 -7 9 -4 20 3 11 10 20 15 20 6 0 7 -7 4 -16z m399 -2 c11
-9 19 -16 17 -15 -8 3 -42 -38 -38 -46 3 -4 -1 -8 -9 -8 -8 0 -12 4 -9 9 3 4
2 8 -1 8 -3 0 -15 -19 -25 -42 -16 -36 -20 -39 -25 -23 -4 11 -13 37 -21 58
-22 60 -19 65 34 70 26 2 49 4 52 5 3 1 14 -6 25 -16z m-4025 -24 c0 -6 -6 -5
-15 2 -8 7 -15 14 -15 16 0 2 7 1 15 -2 8 -4 15 -11 15 -16z m170 -16 c0 -15
-2 -15 -10 -2 -13 20 -13 33 0 25 6 -3 10 -14 10 -23z m3490 -32 c-20 -12 -30
-3 -30 28 l0 26 23 -22 c18 -19 20 -24 7 -32z m230 -15 c0 -8 -4 -15 -10 -15
-5 0 -10 7 -10 15 0 8 5 15 10 15 6 0 10 -7 10 -15z m-3760 -58 c18 -3 15 -5
-12 -6 -24 0 -38 4 -38 11 0 6 -10 23 -22 37 -15 17 -11 15 12 -6 19 -17 46
-33 60 -36z m7850 46 c0 -3 -6 -3 -14 0 -8 3 -20 -1 -26 -9 -7 -8 -24 -13 -39
-13 -21 1 -22 2 -6 6 11 3 28 11 39 18 16 12 46 11 46 -2z m-4780 -3 c0 -5 -4
-10 -10 -10 -5 0 -10 5 -10 10 0 6 5 10 10 10 6 0 10 -4 10 -10z m620 -10 c0
-11 -2 -20 -4 -20 -2 0 -6 9 -9 20 -3 11 -1 20 4 20 5 0 9 -9 9 -20z m-705
-30 c3 -5 1 -10 -4 -10 -6 0 -11 5 -11 10 0 6 2 10 4 10 3 0 8 -4 11 -10z
m685 2 c0 -5 -6 -16 -13 -27 -16 -20 -31 -7 -21 19 6 16 34 23 34 8z m540 -42
c-10 -23 -16 -28 -25 -20 -11 9 -9 16 8 34 28 28 33 24 17 -14z m-1395 10 c4
-6 11 -7 17 -4 7 4 8 2 4 -4 -4 -7 -13 -12 -21 -12 -8 0 -24 -10 -36 -22 -12
-13 -18 -17 -14 -9 6 10 2 11 -15 6 -19 -6 -22 -4 -17 9 4 10 3 15 -3 11 -5
-3 -7 1 -4 9 9 23 77 35 89 16z m-2745 -20 c8 -5 11 -10 5 -10 -5 0 -17 5 -25
10 -8 5 -10 10 -5 10 6 0 17 -5 25 -10z m335 -30 c3 -5 1 -10 -4 -10 -6 0 -11
5 -11 10 0 6 2 10 4 10 3 0 8 -4 11 -10z m2447 -42 c-7 -7 -12 -8 -12 -2 0 6
3 14 7 17 3 4 9 5 12 2 2 -3 -1 -11 -7 -17z m58 -18 l21 -21 -21 -26 c-11 -14
-21 -21 -21 -14 -2 14 -6 30 -8 34 -2 1 -4 12 -7 25 -5 27 10 28 36 2z m-1293
-87 c-2 -21 -4 -6 -4 32 0 39 2 55 4 38 2 -18 2 -50 0 -70z m160 -10 c-2 -21
-4 -4 -4 37 0 41 2 58 4 38 2 -21 2 -55 0 -75z m5056 42 c-3 -9 -8 -14 -10
-11 -3 3 -2 9 2 15 9 16 15 13 8 -4z m-1953 -22 c0 -26 -1 -26 -15 -7 -19 25
-19 34 0 34 10 0 15 -10 15 -27z m67 -25 c-3 -8 -6 -5 -6 6 -1 11 2 17 5 13 3
-3 4 -12 1 -19z m-1495 -10 c-7 -7 -12 -8 -12 -2 0 14 12 26 19 19 2 -3 -1
-11 -7 -17z m-359 -33 c-10 -13 -24 -27 -31 -30 -8 -3 -3 8 10 24 28 36 46 41
21 6z m-3322 -95 c5 0 9 6 9 13 0 8 7 14 15 14 8 0 15 -6 15 -12 0 -7 11 -10
30 -7 17 2 30 0 30 -6 0 -5 27 -10 61 -11 34 0 64 -3 67 -6 3 -3 -20 -5 -51
-5 -31 0 -58 -4 -62 -9 -3 -5 -26 -8 -51 -5 -43 4 -46 3 -41 -16 3 -11 1 -20
-4 -20 -5 0 -9 4 -9 10 0 10 -51 25 -124 35 -31 4 -44 10 -37 15 7 4 22 5 33
2 11 -3 23 -1 27 5 3 5 22 14 41 19 27 8 36 7 38 -3 2 -7 8 -13 13 -13z m8262
-40 c3 -11 1 -18 -4 -14 -5 3 -9 12 -9 20 0 20 7 17 13 -6z m-8299 -29 c3 -4
-6 -6 -19 -3 -14 2 -25 6 -25 8 0 8 39 4 44 -5z m6836 -15 c0 -2 -9 -6 -20 -9
-11 -3 -18 -1 -14 4 5 9 34 13 34 5z m-117 -26 c3 -11 1 -20 -4 -20 -5 0 -9 9
-9 20 0 11 2 20 4 20 2 0 6 -9 9 -20z m-1476 -27 c-3 -10 -5 -4 -5 12 0 17 2
24 5 18 2 -7 2 -21 0 -30z m25 12 c-2 -14 -6 -25 -8 -25 -2 0 -4 11 -4 25 0
14 4 25 9 25 4 0 6 -11 3 -25z m28 -2 c0 -19 -3 -24 -10 -17 -6 6 -8 18 -4 27
9 24 14 21 14 -10z m27 -10 c-3 -10 -5 -4 -5 12 0 17 2 24 5 18 2 -7 2 -21 0
-30z m43 -3 c5 0 11 9 14 20 5 17 6 17 4 -2 -4 -28 -33 -31 -34 -3 -1 15 0 16
3 3 3 -10 8 -18 13 -18z m120 30 c7 12 10 8 10 -15 0 -21 -3 -26 -9 -16 -5 7
-14 10 -20 7 -7 -5 -11 1 -11 16 0 19 2 20 10 8 9 -13 11 -13 20 0z m30 -16
c-1 -4 4 -11 12 -16 10 -8 10 -9 -2 -5 -8 2 -16 14 -17 28 -1 13 0 18 3 12 3
-7 5 -15 4 -19z m121 -4 c-3 -3 -9 -9 -13 -14 -5 -5 -8 3 -8 18 0 22 2 25 14
14 8 -7 11 -15 7 -18z m26 -7 c-3 -10 -5 -4 -5 12 0 17 2 24 5 18 2 -7 2 -21
0 -30z m49 2 c-3 -8 -11 -15 -18 -14 -10 0 -10 2 0 6 6 2 12 14 13 26 0 12 3
16 6 9 3 -7 2 -19 -1 -27z m24 9 c-1 -4 4 -11 12 -16 10 -8 10 -9 -2 -5 -8 2
-16 14 -17 28 -1 13 0 18 3 12 3 -7 5 -15 4 -19z m53 17 c3 8 6 4 6 -9 1 -13
-3 -21 -8 -18 -5 4 -12 0 -14 -6 -3 -7 -6 1 -6 17 0 21 2 26 8 16 7 -11 9 -11
14 0z m67 -30 c0 -6 -4 -11 -10 -11 -5 0 -10 4 -10 9 0 5 -3 18 -7 28 -6 17
-6 17 10 1 9 -9 17 -21 17 -27z m32 14 c3 -14 1 -25 -3 -25 -5 0 -9 11 -9 25
0 14 2 25 4 25 2 0 6 -11 8 -25z m48 15 c4 7 8 1 8 -15 0 -16 -4 -22 -8 -15
-6 9 -9 9 -13 -1 -3 -8 -5 0 -5 16 0 17 2 24 5 16 4 -10 7 -10 13 -1z m50 -31
c0 -7 -6 -4 -15 7 -19 25 -19 40 0 20 8 -8 15 -20 15 -27z m34 -1 c7 -5 5 -8
-6 -8 -13 0 -18 7 -17 28 1 21 2 22 6 7 3 -11 10 -23 17 -27z m-414 7 c0 -8
-7 -15 -15 -15 -13 0 -14 3 -3 15 16 18 18 18 18 0z m1176 -7 c3 -13 14 -32
23 -43 15 -18 15 -19 -1 -6 -21 16 -50 71 -38 71 5 0 12 -10 16 -22z m89 -6
c-3 -3 -11 0 -18 7 -9 10 -8 11 6 5 10 -3 15 -9 12 -12z m1404 -68 c-14 -13
-16 -13 -16 0 0 8 4 13 9 10 4 -3 8 0 8 7 0 7 3 9 7 5 4 -3 0 -13 -8 -22z
m-1519 -26 l25 -4 -27 -8 c-37 -11 -58 -1 -58 25 0 20 1 21 18 6 9 -8 28 -17
42 -19z m146 -6 c-10 -2 -22 0 -28 6 -6 6 0 7 19 4 21 -5 23 -7 9 -10z m-53 1
c-7 -2 -19 -2 -25 0 -7 3 -2 5 12 5 14 0 19 -2 13 -5z m-7455 -310 c-14 -3
-18 -16 -20 -51 l-2 -47 -3 47 c-3 33 -9 48 -21 51 -9 3 1 5 23 5 22 0 32 -2
23 -5z m199 -70 c-2 -16 -4 -3 -4 27 0 30 2 43 4 28 2 -16 2 -40 0 -55z m279
65 c4 -7 3 -8 -5 -4 -6 4 -20 4 -32 1 -16 -5 -19 -14 -17 -38 3 -27 7 -32 30
-32 14 1 24 -3 22 -7 -8 -12 -38 -10 -52 4 -15 15 -15 61 0 76 15 15 45 15 54
0z m475 -23 c16 -43 23 -44 39 -5 20 49 30 45 29 -12 -2 -52 -2 -52 -8 -13
l-6 40 -17 -40 -16 -40 -18 40 -18 40 -7 -40 c-6 -40 -6 -40 -8 13 -1 60 12
68 30 17z m366 -42 c-2 -16 -4 -3 -4 27 0 30 2 43 4 28 2 -16 2 -40 0 -55z
m551 70 c-14 -3 -18 -16 -20 -51 l-2 -47 -3 47 c-3 33 -9 48 -21 51 -9 3 1 5
23 5 22 0 32 -2 23 -5z m199 -70 c-2 -16 -4 -3 -4 27 0 30 2 43 4 28 2 -16 2
-40 0 -55z m243 37 c16 -39 23 -38 39 5 18 51 31 43 30 -17 -2 -53 -2 -53 -8
-13 l-7 40 -18 -40 -18 -40 -16 40 -17 40 -6 -40 c-6 -39 -6 -39 -8 13 -1 57
9 61 29 12z m490 35 c0 -3 -11 -23 -25 -45 l-24 -39 27 -4 c21 -3 19 -4 -11
-6 l-38 -1 31 44 30 45 -27 4 c-26 4 -26 4 5 6 17 0 32 -1 32 -4z m105 -45 c0
-27 -4 -50 -10 -50 -5 0 -10 23 -10 50 0 28 5 50 10 50 6 0 10 -22 10 -50z
m828 42 c-6 -4 -13 -28 -16 -52 l-4 -45 -1 47 c-2 35 -6 48 -19 51 -10 3 -2 5
17 6 19 0 30 -3 23 -7z m194 -69 c-2 -16 -4 -3 -4 27 0 30 2 43 4 28 2 -16 2
-40 0 -55z m272 40 c7 -21 15 -45 17 -53 3 -9 1 -8 -6 3 -6 9 -20 17 -30 17
-10 0 -24 -8 -29 -17 -15 -26 -13 -13 5 40 9 26 19 47 23 47 4 0 13 -17 20
-37z m1404 29 c-6 -4 -13 -28 -16 -52 l-4 -45 -1 47 c-2 35 -6 48 -19 51 -10
3 -2 5 17 6 19 0 30 -3 23 -7z m194 -69 c-2 -16 -4 -3 -4 27 0 30 2 43 4 28 2
-16 2 -40 0 -55z m246 70 c-22 -4 -33 -33 -14 -33 17 0 40 -30 35 -45 -4 -8
-18 -15 -33 -14 -14 0 -19 3 -11 6 8 2 22 7 30 10 11 3 8 10 -14 28 -33 27
-30 56 6 54 l23 -2 -22 -4z m217 -44 c0 -49 -1 -50 -27 -47 -22 2 -28 8 -28
28 0 16 8 28 23 35 12 5 22 15 22 22 0 7 2 13 5 13 3 0 5 -23 5 -51z m240 5
c0 -29 21 -23 37 10 9 20 20 36 25 36 4 0 7 -24 7 -52 -2 -52 -2 -52 -8 -13
l-6 40 -20 -39 -19 -40 -17 39 -18 39 -4 -39 c-3 -33 -4 -31 -5 15 -1 50 0 53
13 36 8 -11 15 -25 15 -32z m973 38 c-6 -4 -13 -28 -16 -52 l-4 -45 -1 47 c-2
35 -6 48 -19 51 -10 3 -2 5 17 6 19 0 30 -3 23 -7z m194 -69 c-2 -16 -4 -3 -4
27 0 30 2 43 4 28 2 -16 2 -40 0 -55z m263 73 c0 -2 -11 -6 -25 -8 -14 -3 -25
-1 -25 3 0 5 11 9 25 9 14 0 25 -2 25 -4z m-7855 -16 c-3 -5 0 -10 7 -10 8 0
9 -3 3 -8 -16 -11 -18 -44 -3 -54 10 -8 10 -9 -2 -5 -25 6 -33 87 -8 87 5 0 6
-4 3 -10z m590 0 c-3 -5 0 -10 7 -11 10 0 10 -2 1 -6 -7 -2 -13 -12 -14 -21 0
-13 -2 -13 -8 3 -5 11 -4 25 1 33 12 14 22 16 13 2z m1284 -18 c-12 -5 -11
-49 1 -55 6 -3 5 -4 -2 -3 -14 3 -27 52 -20 73 3 9 7 9 17 0 7 -7 9 -13 4 -15z
m604 -21 c1 -23 -1 -41 -5 -41 -5 0 -8 14 -8 30 0 17 -5 30 -10 30 -6 0 -5 6
2 14 17 19 20 15 21 -33z m1266 21 c-14 -5 -11 -50 4 -55 7 -4 6 -6 -4 -6 -12
-1 -18 9 -21 33 -5 46 0 59 17 43 7 -7 9 -13 4 -15z m1864 -21 c1 -23 -1 -41
-5 -41 -5 0 -8 14 -8 30 0 17 -5 30 -10 30 -6 0 -5 6 2 14 17 19 20 15 21 -33z
m1870 0 c1 -23 -1 -41 -5 -41 -5 0 -8 14 -8 30 0 17 -5 30 -10 30 -6 0 -5 6 2
14 17 19 20 15 21 -33z m562 39 c-3 -5 0 -10 7 -11 10 0 10 -2 1 -6 -16 -6
-17 -49 -3 -56 6 -3 5 -4 -2 -3 -17 3 -28 62 -15 75 14 14 20 14 12 1z m184
-18 c-12 -5 -11 -49 1 -55 6 -3 5 -4 -2 -3 -14 3 -27 52 -20 73 3 9 7 9 17 0
7 -7 9 -13 4 -15z m-8262 -44 c-2 -13 -4 -5 -4 17 -1 22 1 32 4 23 2 -10 2
-28 0 -40z m96 -10 c8 -5 6 -8 -5 -8 -14 0 -18 8 -17 38 2 34 2 34 6 7 3 -16
10 -33 16 -37z m24 10 c-2 -13 -4 -5 -4 17 -1 22 1 32 4 23 2 -10 2 -28 0 -40z
m118 17 c0 -25 -4 -30 -25 -30 -16 0 -26 6 -28 18 -6 30 6 49 30 45 18 -2 23
-9 23 -33z m267 4 c5 -32 -9 -46 -37 -35 -21 8 -19 27 5 33 25 7 26 20 3 26
-14 4 -14 5 3 6 17 1 23 -6 26 -30z m83 20 c12 -19 -4 -59 -24 -59 -11 0 -22
-8 -24 -17 -3 -10 -5 5 -6 32 -1 47 1 51 24 53 13 1 27 -3 30 -9z m119 -5 c3
-9 6 -25 6 -35 0 -16 -6 -20 -27 -17 -35 4 -37 30 -3 39 l25 6 -25 11 c-23 10
-23 11 -4 11 12 1 25 -6 28 -15z m33 -36 c-2 -13 -4 -5 -4 17 -1 22 1 32 4 23
2 -10 2 -28 0 -40z m80 12 c1 -34 1 -34 -5 -5 -4 17 -14 30 -22 30 -8 0 -18
-13 -21 -30 -7 -30 -7 -30 -8 6 -1 33 1 36 27 35 24 -1 27 -5 29 -36z m235 23
c7 -33 -4 -54 -25 -51 -28 4 -34 28 -8 35 26 7 27 20 4 26 -14 4 -13 5 4 6 13
1 23 -6 25 -16z m82 -8 c4 -14 11 -23 16 -20 6 3 10 2 10 -4 0 -24 -19 -18
-30 9 -16 40 -38 38 -43 -2 -4 -32 -4 -32 -5 5 -2 33 1 37 22 37 17 0 26 -7
30 -25z m39 10 c-3 -9 -8 -14 -10 -11 -3 3 -2 9 2 15 9 16 15 13 8 -4z m67 11
c0 -2 3 -11 6 -20 5 -12 0 -16 -20 -16 -32 0 -34 -17 -3 -23 19 -5 19 -5 -3
-4 -41 3 -41 67 0 67 11 0 20 -2 20 -4z m627 -48 c-2 -13 -4 -5 -4 17 -1 22 1
32 4 23 2 -10 2 -28 0 -40z m123 19 c0 -27 -4 -33 -22 -34 -12 -1 -26 3 -30
10 -10 16 -10 47 1 47 4 0 8 -10 7 -22 -2 -34 28 -29 32 5 5 37 12 34 12 -6z
m115 12 c14 -43 -45 -66 -61 -24 -8 19 13 45 37 45 10 0 21 -10 24 -21z m75
11 c0 -5 -4 -10 -10 -10 -5 0 -10 5 -10 10 0 6 5 10 10 10 6 0 10 -4 10 -10z
m228 -28 c3 -29 1 -32 -22 -32 -31 0 -36 29 -6 37 11 3 20 10 20 15 0 6 -9 8
-20 5 -11 -3 -17 -1 -14 4 13 21 39 3 42 -29z m50 31 c-24 -6 -23 -19 3 -26
12 -3 19 -12 17 -19 -5 -15 -48 -24 -48 -10 0 6 10 8 23 5 l22 -5 -24 20 c-25
20 -21 43 7 41 15 -1 15 -2 0 -6z m126 -2 c4 -5 -3 -7 -14 -4 -11 3 -20 0 -20
-6 0 -6 12 -12 28 -12 l27 -2 -27 -4 c-34 -5 -37 -20 -5 -26 19 -5 19 -5 -3
-4 -25 2 -37 25 -26 53 6 16 32 19 40 5z m59 1 c-6 -4 -13 -21 -16 -37 -4 -27
-4 -27 -6 8 -1 29 3 37 17 37 11 0 13 -3 5 -8z m302 -27 c0 -23 -5 -31 -22
-33 -12 -2 -24 -11 -26 -20 -3 -9 -5 6 -6 34 -1 49 0 51 27 50 23 -1 27 -5 27
-31z m782 -17 c-2 -13 -4 -5 -4 17 -1 22 1 32 4 23 2 -10 2 -28 0 -40z m101
-6 c9 2 20 17 23 33 7 30 7 30 8 -6 1 -33 -1 -36 -26 -35 -24 1 -28 6 -30 34
l-3 32 6 -31 c4 -21 10 -29 22 -27z m147 37 c14 -43 -45 -66 -61 -24 -8 19 13
45 37 45 10 0 21 -10 24 -21z m75 11 c0 -5 -4 -10 -10 -10 -5 0 -10 5 -10 10
0 6 5 10 10 10 6 0 10 -4 10 -10z m201 -7 c0 -10 2 -33 3 -50 1 -18 -1 -33 -6
-33 -4 0 -8 7 -8 15 0 8 -9 15 -19 15 -24 0 -37 36 -21 55 17 21 50 19 51 -2z
m54 -43 c8 0 15 14 18 33 4 31 4 31 5 -5 2 -34 0 -38 -23 -38 -23 0 -25 4 -23
38 1 36 1 36 5 5 3 -19 10 -33 18 -33z m103 22 c3 -31 2 -33 -25 -30 -35 4
-37 30 -3 39 l25 6 -25 12 -25 11 25 -3 c20 -2 26 -8 28 -35z m110 -1 l-1 -36
-4 33 c-5 40 -25 38 -34 -4 l-7 -29 -1 33 c-1 41 -23 39 -32 -4 -7 -29 -7 -28
-8 6 -1 35 -1 35 44 37 l45 1 -2 -37z m80 1 c3 -29 1 -32 -22 -32 -31 0 -36
29 -6 37 11 3 20 10 20 15 0 6 -9 8 -20 5 -11 -3 -17 -1 -14 4 13 21 39 3 42
-29z m79 -2 c1 -34 1 -34 -5 -5 -4 17 -14 30 -22 30 -8 0 -18 -13 -21 -30 -7
-30 -7 -30 -8 6 -1 33 1 36 27 35 24 -1 27 -5 29 -36z m920 -12 c-2 -13 -4 -5
-4 17 -1 22 1 32 4 23 2 -10 2 -28 0 -40z m101 -6 c9 2 20 17 23 33 7 30 7 30
8 -6 1 -33 -1 -36 -26 -35 -24 1 -28 6 -30 34 l-3 32 6 -31 c4 -21 10 -29 22
-27z m146 36 c8 -14 7 -21 -6 -34 -30 -30 -75 9 -48 42 16 18 39 15 54 -8z
m261 11 c12 -19 -4 -59 -24 -59 -11 0 -22 -8 -24 -17 -3 -10 -5 5 -6 32 -1 47
1 51 24 53 13 1 27 -3 30 -9z m32 -41 c-2 -13 -4 -5 -4 17 -1 22 1 32 4 23 2
-10 2 -28 0 -40z m161 29 c3 -13 -3 -17 -24 -17 -30 0 -23 -14 11 -23 16 -5
15 -5 -4 -4 -32 3 -49 30 -31 52 16 20 44 16 48 -8z m49 10 c-9 -7 -18 -23
-20 -37 -3 -19 -5 -17 -6 10 -1 30 3 36 20 37 19 2 19 0 6 -10z m251 -25 c3
-29 1 -32 -22 -32 -31 0 -36 29 -6 37 11 3 20 10 20 15 0 6 -9 8 -20 5 -11 -3
-17 -1 -14 4 13 21 39 3 42 -29z m79 -2 c1 -34 1 -34 -5 -5 -4 17 -14 30 -22
30 -8 0 -18 -13 -21 -30 -7 -30 -7 -30 -8 6 -1 33 1 36 27 35 24 -1 27 -5 29
-36z m790 -12 c-2 -13 -4 -5 -4 17 -1 22 1 32 4 23 2 -10 2 -28 0 -40z m101
-6 c9 2 20 17 23 33 7 30 7 30 8 -6 1 -33 -1 -36 -26 -35 -24 1 -28 6 -30 34
l-3 32 6 -31 c4 -21 10 -29 22 -27z m137 23 c0 -25 -4 -30 -25 -30 -16 0 -26
6 -28 18 -6 30 6 49 30 45 18 -2 23 -9 23 -33z m163 2 c-12 -4 -18 -13 -14
-22 3 -8 1 -15 -4 -15 -6 0 -10 15 -10 34 0 33 1 34 24 23 24 -12 24 -12 4
-20z m90 -5 c3 -29 1 -32 -22 -32 -31 0 -36 29 -6 37 11 3 20 10 20 15 0 6 -9
8 -20 5 -11 -3 -17 -1 -14 4 13 21 39 3 42 -29z m79 -2 c1 -34 1 -34 -5 -5 -4
17 -14 30 -22 30 -8 0 -18 -13 -21 -30 -7 -30 -7 -30 -8 6 -1 33 1 36 27 35
24 -1 27 -5 29 -36z m117 24 c3 -9 6 -25 6 -35 0 -16 -6 -20 -27 -17 -35 4
-37 30 -3 39 l25 6 -25 11 c-23 10 -23 11 -4 11 12 1 25 -6 28 -15z m54 9
c-22 -6 -23 -12 -1 -28 9 -7 13 -17 9 -23 -9 -14 -33 -16 -40 -3 -4 5 3 7 14
4 11 -3 20 0 20 6 0 6 -6 11 -14 11 -8 0 -18 5 -21 10 -10 16 4 30 28 29 17
-1 18 -2 5 -6z m89 -45 c-2 -13 -4 -5 -4 17 -1 22 1 32 4 23 2 -10 2 -28 0
-40z m56 45 c-16 -3 -23 -11 -23 -28 0 -16 7 -25 23 -28 19 -5 19 -5 -3 -4
-15 1 -26 9 -28 20 -6 30 6 47 30 46 l23 -2 -22 -4z m-1956 -29 c-3 -3 -12 -4
-19 -1 -8 3 -5 6 6 6 11 1 17 -2 13 -5z m-5762 -32 c-3 -3 -11 0 -18 7 -9 10
-8 11 6 5 10 -3 15 -9 12 -12z m1545 8 c0 -5 -4 -10 -10 -10 -5 0 -10 5 -10
10 0 6 5 10 10 10 6 0 10 -4 10 -10z m1870 0 c0 -5 -4 -10 -10 -10 -5 0 -10 5
-10 10 0 6 5 10 10 10 6 0 10 -4 10 -10z m-4082 -103 c3 -21 -1 -30 -16 -34
-11 -2 -24 -14 -30 -26 -9 -18 -11 -12 -11 36 -1 58 -1 58 27 55 21 -2 28 -9
30 -31z m802 25 c0 -5 -13 -7 -30 -4 -16 2 -30 6 -30 8 0 2 14 4 30 4 17 0 30
-4 30 -8z m97 -17 c2 -17 1 -18 -3 -2 -4 13 -12 17 -25 14 -11 -3 -16 -1 -13
4 10 17 39 5 41 -16z m941 0 c7 -14 12 -32 12 -40 0 -28 18 -15 30 20 19 56
30 51 28 -12 -1 -54 -2 -55 -6 -13 l-4 45 -18 -45 c-20 -49 -17 -51 -46 25 -6
16 -9 10 -14 -25 l-7 -45 -1 58 c-2 61 8 73 26 32z m325 -78 c18 -4 17 -5 -5
-6 -28 -1 -28 0 -26 57 l2 57 3 -52 c3 -44 7 -52 26 -56z m1566 89 c15 -18 -2
-56 -24 -56 -7 0 -16 -10 -18 -22 -2 -13 -5 3 -6 35 -1 50 1 57 18 57 10 0 24
-6 30 -14z m784 4 c-28 -11 -30 -30 -4 -30 26 0 38 -38 18 -57 -25 -25 -47 -9
-47 35 0 40 14 62 40 61 9 0 6 -4 -7 -9z m124 -15 c1 -16 1 -16 -3 -2 -3 9
-11 17 -18 17 -26 0 -26 -15 0 -36 30 -27 29 -58 -4 -62 -27 -4 -40 22 -22 43
9 11 10 19 1 28 -8 10 -7 17 2 26 17 17 41 9 44 -14z m928 -30 c0 -30 -4 -55
-10 -55 -5 0 -10 25 -10 55 0 30 5 55 10 55 6 0 10 -25 10 -55z m346 22 c12 3
19 0 20 -8 1 -8 2 -26 3 -41 2 -15 -1 -25 -6 -22 -4 3 -8 19 -8 35 0 42 -23
33 -31 -12 -5 -26 -6 -19 -6 26 0 33 2 50 4 39 3 -16 9 -20 24 -17z m192 26
c-28 -5 -29 -17 -3 -46 26 -28 22 -52 -10 -54 -22 -1 -22 -1 -2 4 27 6 28 23
2 46 -33 28 -25 58 14 56 19 -2 19 -2 -1 -6z m217 -47 c0 -51 -1 -53 -27 -52
-25 1 -28 5 -28 36 0 30 3 35 23 34 15 0 22 5 22 18 0 10 2 18 5 18 3 0 5 -24
5 -54z m216 9 c9 -51 20 -51 33 1 7 26 14 44 16 42 3 -3 -2 -28 -11 -58 -9
-31 -19 -49 -25 -43 -12 12 -39 104 -28 98 4 -3 11 -21 15 -40z m929 9 c1 -25
-3 -30 -17 -26 -13 3 -18 -1 -18 -17 0 -21 24 -29 33 -11 3 6 4 5 3 -2 -1 -7
-12 -14 -24 -16 -20 -3 -22 1 -22 53 0 53 1 56 23 53 17 -2 22 -10 22 -34z
m458 28 c-6 -4 -13 -30 -16 -57 l-3 -50 -2 52 c-2 40 -6 53 -19 56 -10 3 -2 5
17 6 19 0 30 -3 23 -7z m56 -25 c15 4 19 -2 23 -32 2 -20 0 -38 -4 -41 -4 -3
-8 11 -8 31 0 47 -22 42 -31 -6 -5 -26 -6 -19 -6 26 0 33 2 50 4 39 3 -15 10
-20 22 -17z m203 26 c-29 -6 -50 -48 -36 -71 6 -9 22 -20 35 -23 23 -7 23 -7
2 -8 -27 -1 -53 24 -53 51 0 29 28 58 54 57 19 -2 19 -2 -2 -6z m524 -13 c0
-11 -4 -20 -9 -20 -4 0 -7 -6 -6 -12 1 -7 0 -24 -1 -38 -2 -18 -5 -14 -9 15
-4 22 -2 48 4 58 13 23 21 22 21 -3z m-8508 -27 c-11 -14 -7 -44 7 -56 6 -5 4
-7 -5 -4 -15 4 -30 61 -22 84 3 9 7 9 17 0 9 -8 10 -16 3 -24z m3741 9 c-14
-5 -11 -60 4 -65 7 -4 6 -6 -4 -6 -12 -1 -18 10 -21 38 -5 51 0 64 17 48 7 -7
9 -13 4 -15z m1744 -26 c1 -25 -1 -46 -5 -46 -5 0 -8 16 -8 35 0 19 -5 35 -10
35 -6 0 -5 6 2 14 17 19 20 15 21 -38z m162 44 c-3 -5 -1 -10 6 -10 9 0 9 -3
0 -14 -14 -16 -11 -47 4 -59 6 -5 4 -7 -5 -4 -25 6 -33 97 -8 97 5 0 6 -4 3
-10z m1874 -18 c-12 -5 -11 -59 1 -65 6 -3 5 -4 -2 -3 -13 3 -27 61 -20 83 3
9 7 9 17 0 7 -7 9 -13 4 -15z m-7671 -60 c11 2 19 17 23 38 l6 35 2 -41 c1
-39 -1 -41 -26 -40 -25 1 -28 5 -29 36 l-1 35 4 -33 c3 -25 9 -32 21 -30z
m109 23 c2 -40 2 -40 -6 -7 -5 18 -11 36 -15 39 -9 10 -18 -3 -26 -39 l-8 -33
-1 41 c-1 39 1 41 27 40 24 -1 27 -5 29 -41z m98 -25 c9 0 15 14 18 38 l4 37
1 -42 c2 -40 0 -43 -23 -43 -23 0 -25 3 -23 43 l1 42 4 -37 c3 -24 9 -38 18
-38z m95 29 c0 -36 -2 -40 -22 -37 -29 4 -35 28 -9 35 25 6 28 30 4 36 -14 4
-12 5 5 6 19 1 22 -4 22 -40z m58 34 c-9 -2 -19 -11 -22 -19 -8 -20 3 -42 22
-47 15 -4 15 -5 1 -6 -9 0 -22 6 -29 14 -17 21 2 65 27 64 16 -1 16 -2 1 -6z
m39 -55 c-2 -13 -4 -3 -4 22 0 25 2 35 4 23 2 -13 2 -33 0 -45z m85 37 c8 -19
8 -28 -2 -40 -28 -34 -71 -2 -52 40 7 14 19 25 27 25 8 0 20 -11 27 -25z m35
-37 c-2 -13 -4 -3 -4 22 0 25 2 35 4 23 2 -13 2 -33 0 -45z m45 39 c3 -13 1
-32 -3 -43 -6 -14 -8 -10 -8 18 -1 20 -7 39 -13 41 -8 4 -7 6 3 6 10 1 19 -9
21 -22z m65 1 c-3 -8 -6 -5 -6 6 -1 11 2 17 5 13 3 -3 4 -12 1 -19z m98 -27
c-22 -44 -27 -38 -7 9 9 21 18 35 20 30 2 -5 -4 -22 -13 -39z m1207 24 c0 -14
1 -31 2 -37 1 -17 -46 -17 -52 0 -2 7 5 16 17 19 25 6 28 30 4 36 -14 4 -12 5
5 6 17 1 22 -5 24 -24z m35 -37 c-2 -13 -4 -3 -4 22 0 25 2 35 4 23 2 -13 2
-33 0 -45z m45 27 c2 -19 0 -35 -4 -35 -4 0 -8 13 -8 29 0 16 -6 32 -12 34 -8
4 -7 6 3 6 12 1 18 -9 21 -34z m177 18 c0 -11 -3 -13 -6 -5 -7 17 -33 15 -33
-3 0 -9 10 -16 28 -16 l27 -2 -27 -4 c-33 -5 -37 -20 -8 -26 17 -4 16 -4 -2
-3 -24 1 -35 32 -24 62 8 21 46 18 45 -3z m86 -29 c-2 -51 -14 -68 -41 -61
-16 4 -15 5 4 6 28 1 30 21 2 21 -26 0 -36 25 -22 56 8 15 20 24 35 24 21 0
23 -4 22 -46z m69 30 c3 -9 6 -27 6 -40 0 -22 -4 -25 -27 -22 -34 4 -37 30 -6
38 23 5 20 23 -7 33 -10 4 -8 6 6 6 12 1 25 -6 28 -15z m100 -16 l14 -33 7 33
c4 17 11 32 16 32 10 0 -16 -77 -32 -97 -6 -7 -16 -13 -22 -13 -6 0 -3 6 6 13
25 18 3 87 -29 87 -20 0 -34 -17 -34 -41 0 -5 10 -14 23 -19 15 -6 17 -9 6 -9
-28 -1 -44 26 -31 54 18 38 58 34 76 -7z m1291 -38 c9 0 15 14 18 38 l4 37 1
-42 c2 -40 0 -43 -23 -43 -23 0 -25 3 -23 43 l1 42 4 -37 c3 -24 9 -38 18 -38z
m101 25 l1 -40 -4 38 c-3 23 -9 37 -18 37 -9 0 -15 -14 -18 -37 l-4 -38 -1 43
c-2 40 0 43 21 40 18 -2 22 -10 23 -43z m104 -20 c9 0 17 13 21 35 l6 35 2
-41 c1 -39 -1 -41 -26 -40 -25 1 -28 5 -30 41 l-1 40 6 -35 c4 -22 13 -35 22
-35z m98 22 c3 -34 1 -37 -22 -37 -31 0 -36 29 -6 37 11 3 20 12 20 20 0 10
-7 14 -20 10 -11 -3 -17 -1 -14 4 14 23 39 3 42 -34z m62 36 c-35 -14 -40 -50
-7 -63 22 -10 22 -10 -3 -7 -43 4 -41 78 2 76 15 0 18 -3 8 -6z m37 -55 c-2
-13 -4 -3 -4 22 0 25 2 35 4 23 2 -13 2 -33 0 -45z m78 22 c0 -31 -3 -35 -25
-35 -19 0 -26 6 -28 23 -5 36 5 54 30 50 19 -2 23 -9 23 -38z m81 -5 l1 -40
-4 38 c-3 23 -9 37 -18 37 -9 0 -15 -14 -18 -37 l-4 -38 -1 43 c-2 40 0 43 21
40 18 -2 22 -10 23 -43z m71 23 c-3 -8 -6 -5 -6 6 -1 11 2 17 5 13 3 -3 4 -12
1 -19z m1220 -23 c1 -40 1 -40 -5 -6 -9 44 -29 51 -38 14 -10 -48 -12 -49 -13
-7 -1 39 1 41 27 40 24 -1 27 -5 29 -41z m128 5 c0 -31 -3 -35 -25 -35 -19 0
-26 6 -28 23 -5 36 5 54 30 50 19 -2 23 -9 23 -38z m243 12 c3 -18 -1 -22 -24
-22 -30 0 -23 -15 11 -23 19 -4 19 -5 -1 -6 -33 -2 -49 24 -35 55 14 31 45 29
49 -4z m192 8 c7 -14 7 -20 0 -20 -5 0 -10 7 -10 15 0 8 -6 15 -14 15 -16 0
-31 -34 -21 -50 8 -13 35 -13 35 0 0 6 5 10 11 10 8 0 7 -5 -2 -16 -7 -8 -21
-13 -30 -11 -12 3 -19 -2 -22 -17 -2 -11 -5 4 -6 34 -1 52 0 56 24 58 16 1 28
-5 35 -18z m37 -42 c-2 -13 -4 -3 -4 22 0 25 2 35 4 23 2 -13 2 -33 0 -45z
m153 53 c0 -5 3 -16 6 -25 5 -12 0 -16 -20 -16 -31 0 -35 -17 -6 -23 17 -4 16
-4 -2 -3 -24 1 -35 32 -24 62 6 15 46 20 46 5z m53 1 c-6 -4 -13 -23 -16 -42
-4 -33 -4 -33 -5 8 -2 34 1 42 16 42 11 0 13 -3 5 -8z m215 -20 c3 -18 -1 -22
-23 -22 -31 0 -24 -19 8 -21 18 -1 18 -2 4 -6 -18 -5 -47 12 -47 28 0 5 11 9
25 9 16 0 25 6 25 15 0 8 -7 15 -15 15 -8 0 -15 -5 -15 -12 0 -6 -3 -9 -6 -5
-3 3 -3 11 1 17 11 18 40 7 43 -18z m93 19 l-25 -7 23 -21 c13 -12 20 -26 16
-32 -8 -13 -45 -15 -45 -2 0 5 9 7 20 4 11 -3 20 -1 20 5 0 5 -9 12 -21 15
-12 3 -18 10 -15 16 7 11 -12 26 -21 18 -3 -4 -9 -21 -13 -39 l-8 -33 -1 40
-1 40 48 2 c31 0 39 -1 23 -6z m87 -19 c3 -18 -1 -22 -24 -22 -30 0 -23 -15
11 -23 19 -4 19 -5 -1 -6 -32 -2 -47 21 -34 54 12 32 43 31 48 -3z m710 0 c3
-18 -1 -22 -24 -22 -30 0 -23 -15 11 -23 15 -4 14 -5 -7 -6 -32 -1 -45 27 -28
59 14 27 44 22 48 -8z m66 6 c12 -47 8 -60 -21 -56 -34 4 -37 30 -6 38 23 5
20 23 -7 33 -10 4 -8 6 6 6 14 1 24 -7 28 -21z m54 15 c-23 -6 -23 -22 -1 -38
19 -14 9 -36 -15 -34 -15 1 -15 2 1 6 21 6 22 12 0 28 -20 15 -11 45 14 44 17
-1 17 -2 1 -6z m100 0 c-25 -6 -22 -30 3 -36 12 -3 19 -12 17 -19 -5 -15 -48
-24 -48 -10 0 6 10 8 23 5 22 -5 22 -5 -2 15 -27 22 -23 53 6 51 17 -1 17 -2
1 -6z m46 -8 c3 -8 1 -15 -4 -15 -6 0 -10 7 -10 15 0 8 2 15 4 15 2 0 6 -7 10
-15z m264 -13 c3 -18 -1 -22 -24 -22 -30 0 -23 -15 11 -23 19 -4 19 -5 -1 -6
-33 -2 -49 24 -35 55 14 31 45 29 49 -4z m175 20 c-6 -4 -13 -23 -16 -42 -4
-33 -4 -33 -5 8 -2 34 1 42 16 42 11 0 13 -3 5 -8z m24 -54 c-2 -13 -4 -3 -4
22 0 25 2 35 4 23 2 -13 2 -33 0 -45z m121 18 l-1 -41 -4 38 c-5 43 -20 49
-29 10 -10 -48 -12 -49 -13 -10 -1 48 -23 45 -32 -4 l-6 -34 -2 40 -1 40 45 2
45 1 -2 -42z m80 16 c3 -18 -1 -22 -24 -22 -30 0 -23 -15 11 -23 19 -4 19 -5
-1 -6 -33 -2 -49 24 -35 55 14 31 45 29 49 -4z m50 21 c-23 -6 -23 -22 -1 -38
19 -14 9 -36 -15 -34 -15 1 -15 2 1 6 21 6 22 19 2 27 -8 3 -15 15 -15 26 0
14 6 20 23 19 16 -1 18 -2 5 -6z m127 -33 c0 -31 -3 -35 -25 -35 -19 0 -26 6
-28 23 -5 36 5 54 30 50 19 -2 23 -9 23 -38z m-7762 8 c15 -23 1 -48 -25 -47
l-23 2 23 4 c25 5 32 43 7 43 -8 0 -15 5 -15 11 0 14 21 6 33 -13z m5600 -15
c-7 -2 -19 -2 -25 0 -7 3 -2 5 12 5 14 0 19 -2 13 -5z m-1923 -23 c0 -5 -4
-10 -10 -10 -5 0 -10 5 -10 10 0 6 5 10 10 10 6 0 10 -4 10 -10z m-4595 -78
c-26 -9 -26 -33 0 -43 19 -7 18 -8 -3 -8 -19 -1 -22 -5 -17 -21 4 -11 2 -20
-4 -20 -6 0 -11 21 -11 50 0 48 1 50 28 49 22 -1 24 -2 7 -7z m182 -69 c-2
-16 -4 -3 -4 27 0 30 2 43 4 28 2 -16 2 -40 0 -55z m801 54 c2 -11 -6 -29 -18
-42 l-22 -23 24 -5 c17 -3 14 -5 -11 -6 l-35 -1 27 28 c33 34 35 59 5 65 -20
5 -20 5 2 4 15 -1 26 -9 28 -20z m76 7 c17 -45 -6 -93 -39 -80 -15 5 -22 76
-8 89 12 13 41 7 47 -9z m56 -28 c0 -26 5 -46 13 -49 6 -3 -1 -5 -18 -5 -16 0
-24 2 -17 5 15 6 16 73 1 73 -5 0 -7 5 -4 10 14 23 25 7 25 -34z m98 6 c4 -37
-12 -62 -37 -61 -11 0 -9 3 7 9 28 12 29 30 2 30 -23 0 -35 22 -26 46 3 9 15
14 28 12 18 -2 24 -11 26 -36z m677 8 c0 -18 -6 -26 -22 -28 -13 -2 -23 -12
-26 -25 -2 -12 -5 2 -6 31 -1 53 -1 53 27 50 21 -2 27 -8 27 -28z m788 23 c-7
-2 -19 -2 -25 0 -7 3 -2 5 12 5 14 0 19 -2 13 -5z m120 -55 c9 -6 9 -8 0 -8
-7 0 -14 -8 -14 -17 -1 -17 -2 -17 -6 0 -2 9 -13 17 -24 17 -24 0 -24 5 4 43
l22 32 3 -30 c2 -16 9 -33 15 -37z m940 55 c-28 -5 -32 -42 -5 -44 15 -1 15
-2 0 -6 -9 -2 -19 -14 -21 -26 -2 -12 -5 2 -6 31 -1 51 0 52 27 51 23 -2 24
-2 5 -6z m184 -70 c-2 -16 -4 -3 -4 27 0 30 2 43 4 28 2 -16 2 -40 0 -55z
m797 61 c5 -14 4 -15 -9 -4 -8 7 -22 10 -30 6 -9 -3 -13 -2 -10 4 10 16 42 12
49 -6z m80 -17 c12 -34 -2 -62 -30 -62 -14 0 -20 8 -22 33 -2 19 -1 41 2 49 9
23 40 11 50 -20z m56 -11 c0 -26 5 -46 13 -49 6 -3 -1 -5 -18 -5 -16 0 -24 2
-17 5 7 2 12 22 12 44 0 28 -4 38 -12 33 -7 -4 -8 -3 -4 4 15 24 26 10 26 -32z
m88 16 c-1 -15 1 -33 5 -39 9 -14 -19 -37 -38 -30 -9 4 -14 19 -13 44 1 47 4
53 29 53 15 0 19 -6 17 -28z m682 13 c10 -12 10 -18 0 -30 -7 -8 -18 -15 -26
-15 -7 0 -15 -10 -17 -22 -2 -13 -5 1 -6 30 -1 45 2 52 18 52 10 0 24 -7 31
-15z m795 -35 c0 -39 -3 -45 -23 -48 -26 -4 -40 21 -23 42 6 7 8 16 5 19 -12
12 6 38 23 35 14 -3 18 -13 18 -48z m93 43 c-24 -6 -23 -29 2 -36 39 -10 19
-59 -23 -56 -7 0 -2 4 11 9 27 12 29 30 2 37 -30 8 -28 53 3 52 16 -1 18 -2 5
-6z m1002 -1 c0 -4 -12 -8 -26 -7 -53 0 -58 -65 -5 -73 23 -4 30 23 9 31 -8 3
-5 6 5 6 30 1 18 -43 -12 -47 -43 -7 -67 50 -35 82 16 16 64 22 64 8z m240
-41 c0 -46 -1 -48 -27 -47 -24 1 -28 5 -28 31 0 23 5 31 23 33 12 2 22 10 22
18 0 8 2 14 5 14 3 0 5 -22 5 -49z m107 -28 c-2 -16 -4 -3 -4 27 0 30 2 43 4
28 2 -16 2 -40 0 -55z m210 0 c-2 -16 -4 -3 -4 27 0 30 2 43 4 28 2 -16 2 -40
0 -55z m83 28 c0 -46 -1 -48 -26 -47 -35 1 -53 28 -34 51 7 9 22 14 32 12 13
-4 18 0 18 14 0 10 2 19 5 19 3 0 5 -22 5 -49z m-7645 29 c-3 -5 -2 -10 3 -10
6 0 8 -9 5 -20 -7 -25 -19 -26 -25 -2 -6 22 1 42 13 42 6 0 7 -4 4 -10z m1584
-18 c-12 -5 -11 -49 1 -55 6 -3 5 -4 -2 -3 -14 3 -27 52 -20 73 3 9 7 9 17 0
7 -7 9 -13 4 -15z m2160 0 c-14 -5 -11 -50 4 -55 7 -4 6 -6 -4 -6 -12 -1 -18
9 -21 33 -5 46 0 59 17 43 7 -7 9 -13 4 -15z m1574 -21 c1 -23 -1 -41 -5 -41
-5 0 -8 14 -8 30 0 17 -5 30 -10 30 -6 0 -5 6 2 14 17 19 20 15 21 -33z
m-5749 20 c4 -5 -3 -7 -14 -4 -11 3 -20 0 -20 -6 0 -6 12 -12 28 -12 l27 -2
-27 -4 c-34 -5 -37 -20 -5 -26 19 -5 19 -5 -3 -4 -25 2 -37 25 -26 53 6 16 32
19 40 5z m59 -1 c-13 -5 -23 -16 -23 -25 0 -9 10 -20 23 -25 17 -8 18 -9 3 -7
-28 3 -43 32 -27 51 8 9 21 16 30 15 11 0 9 -3 -6 -9z m86 -27 c-2 -35 -2 -35
-6 -8 -3 16 -10 33 -16 37 -8 5 -6 8 6 8 13 0 17 -8 16 -37z m75 21 c13 -34 7
-54 -18 -54 -14 0 -27 4 -30 9 -4 5 2 7 13 4 10 -3 22 0 25 6 5 7 -2 11 -16
12 -23 1 -23 1 2 9 l25 7 -25 11 c-23 10 -23 11 -4 11 12 1 25 -6 28 -15z
m114 -7 c3 -13 -3 -17 -24 -17 -30 0 -23 -14 11 -23 16 -5 15 -5 -4 -4 -32 3
-49 30 -31 52 16 20 44 16 48 -8z m50 16 c-22 -6 -23 -12 -1 -28 19 -14 9 -36
-15 -34 -15 1 -15 2 1 6 21 6 22 19 2 27 -24 9 -18 36 8 35 16 -1 18 -2 5 -6z
m105 -1 c-6 -4 -13 -21 -16 -37 -4 -27 -4 -27 -6 8 -1 29 3 37 17 37 11 0 13
-3 5 -8z m75 -15 c3 -13 -3 -17 -27 -17 -33 0 -39 8 -19 28 17 17 42 11 46
-11z m79 -17 c1 -34 1 -34 -5 -5 -4 17 -14 30 -22 30 -8 0 -18 -13 -21 -30 -7
-30 -7 -30 -8 6 -1 33 1 36 27 35 24 -1 27 -5 29 -36z m78 19 c14 -43 -45 -66
-61 -24 -8 19 13 45 37 45 10 0 21 -10 24 -21z m1143 -37 c9 2 20 17 23 33 7
30 7 30 8 -6 1 -33 -1 -36 -26 -35 -24 1 -28 6 -30 34 l-3 32 6 -31 c4 -21 10
-29 22 -27z m59 6 c-2 -13 -4 -5 -4 17 -1 22 1 32 4 23 2 -10 2 -28 0 -40z
m45 34 c3 -9 1 -26 -3 -37 -6 -16 -8 -14 -8 12 -1 17 -7 34 -13 36 -8 4 -7 6
3 6 9 1 19 -7 21 -17z m128 -15 c0 -27 -4 -33 -22 -34 -24 -2 -38 12 -37 37 0
8 4 4 10 -8 12 -30 33 -23 37 11 5 38 12 34 12 -6z m71 21 c0 -7 2 -23 5 -36
4 -20 1 -23 -23 -20 -33 4 -43 27 -14 35 26 7 27 20 4 26 -14 4 -12 5 5 6 12
0 22 -5 23 -11z m52 2 c-13 -5 -23 -16 -23 -25 0 -9 10 -20 23 -25 17 -8 18
-9 3 -7 -28 3 -43 32 -27 51 8 9 21 16 30 15 11 0 9 -3 -6 -9z m44 -42 c-2
-13 -4 -5 -4 17 -1 22 1 32 4 23 2 -10 2 -28 0 -40z m87 30 c8 -14 7 -21 -6
-34 -30 -30 -75 9 -48 42 16 18 39 15 54 -8z m72 -18 l2 -35 -5 33 c-2 18 -10
32 -18 32 -8 0 -15 -14 -18 -32 -4 -32 -4 -32 -5 5 -2 34 0 38 21 35 18 -2 22
-10 23 -38z m1322 17 c3 -13 -3 -17 -24 -17 -30 0 -23 -14 11 -23 16 -5 15 -5
-4 -4 -32 3 -49 30 -31 52 16 20 44 16 48 -8z m55 13 c-13 -5 -23 -16 -23 -25
0 -9 10 -20 23 -25 22 -10 22 -10 -3 -7 -42 4 -40 68 2 66 l23 0 -22 -9z m83
-31 c2 -31 1 -31 -3 -4 -3 16 -10 34 -16 38 -8 6 -7 7 3 4 9 -2 16 -17 16 -38z
m76 24 c7 -33 -4 -54 -25 -51 -28 4 -34 28 -8 35 26 7 27 20 4 26 -14 4 -13 5
4 6 13 1 23 -6 25 -16z m108 13 c0 -2 3 -11 6 -20 5 -12 0 -16 -20 -16 -32 0
-34 -17 -3 -23 19 -5 19 -5 -3 -4 -41 3 -41 67 0 67 11 0 20 -2 20 -4z m58 -3
c-22 -6 -23 -12 -1 -28 9 -7 13 -17 9 -23 -8 -14 -46 -16 -46 -3 0 5 9 7 20 4
11 -3 20 0 20 6 0 6 -6 11 -14 11 -8 0 -18 5 -21 10 -10 16 4 30 28 29 17 -1
18 -2 5 -6z m100 -5 c-9 -7 -19 -24 -21 -38 -3 -18 -5 -14 -6 13 -1 32 2 37
21 37 19 0 20 -1 6 -12z m72 8 c0 -2 3 -11 6 -19 4 -11 -2 -17 -23 -19 l-28
-4 25 -12 25 -12 -25 3 c-40 4 -41 67 0 67 11 0 20 -2 20 -4z m76 -36 l2 -35
-5 33 c-2 18 -10 32 -18 32 -8 0 -15 -14 -18 -32 -4 -32 -4 -32 -5 5 -2 34 0
38 21 35 18 -2 22 -10 23 -38z m88 18 c8 -14 7 -21 -6 -34 -30 -30 -75 9 -48
42 16 18 39 15 54 -8z m71 12 c3 -5 1 -10 -4 -10 -6 0 -11 5 -11 10 0 6 2 10
4 10 3 0 8 -4 11 -10z m1095 -23 c0 -27 -4 -33 -22 -34 -24 -2 -38 12 -37 37
0 8 4 4 10 -8 12 -30 33 -23 37 11 5 38 12 34 12 -6z m76 -7 l2 -35 -5 33 c-2
18 -10 32 -18 32 -8 0 -15 -14 -18 -32 -4 -32 -4 -32 -5 5 -2 34 0 38 21 35
18 -2 22 -10 23 -38z m102 -18 c9 2 20 17 23 33 7 30 7 30 8 -6 1 -33 -1 -36
-26 -35 -24 1 -28 6 -30 34 l-3 32 6 -31 c4 -21 10 -29 22 -27z m100 20 c3
-29 1 -32 -22 -32 -31 0 -36 29 -6 37 11 3 20 10 20 15 0 6 -9 8 -20 5 -11 -3
-17 -1 -14 4 13 21 39 3 42 -29z m55 31 c-16 -3 -23 -11 -23 -28 0 -16 7 -25
23 -28 19 -5 19 -5 -3 -4 -15 1 -26 9 -28 20 -6 30 6 47 30 46 l23 -2 -22 -4z
m44 -45 c-2 -13 -4 -5 -4 17 -1 22 1 32 4 23 2 -10 2 -28 0 -40z m78 17 c0
-25 -4 -30 -25 -30 -16 0 -26 6 -28 18 -6 30 6 49 30 45 18 -2 23 -9 23 -33z
m82 -5 c1 -34 1 -34 -5 -5 -4 17 -14 30 -22 30 -8 0 -18 -13 -21 -30 -7 -30
-7 -30 -8 6 -1 33 1 36 27 35 24 -1 27 -5 29 -36z m1320 27 c-9 -7 -18 -23
-20 -37 -3 -19 -5 -17 -6 10 -1 30 3 36 20 37 19 2 19 0 6 -10z m30 -39 c-2
-13 -4 -5 -4 17 -1 22 1 32 4 23 2 -10 2 -28 0 -40z m80 12 c1 -34 1 -34 -5
-5 -4 17 -14 30 -22 30 -8 0 -18 -13 -21 -30 -7 -30 -7 -30 -8 6 -1 33 1 36
27 35 24 -1 27 -5 29 -36z m161 17 c3 -13 -3 -17 -24 -17 -30 0 -23 -15 11
-23 15 -4 14 -5 -7 -6 -31 -1 -47 31 -27 55 16 19 43 14 47 -9z m62 4 c0 -11
6 -21 13 -24 8 -3 9 -8 1 -16 -8 -8 -13 -2 -21 24 -6 20 -7 35 -2 35 5 0 9 -9
9 -19z m60 -16 c1 11 4 15 6 8 3 -7 1 -20 -5 -30 -9 -17 -10 -17 -17 2 -4 11
-12 23 -17 26 -5 4 -6 12 -2 19 5 9 12 4 21 -16 10 -24 13 -25 14 -9z m78 -3
c3 -29 1 -32 -22 -32 -31 0 -36 29 -6 37 11 3 20 10 20 15 0 6 -9 8 -20 5 -11
-3 -17 -1 -14 4 13 21 39 3 42 -29z m-5344 12 c8 -20 -11 -44 -33 -43 -11 0
-9 3 7 9 12 5 22 14 22 20 0 6 -10 15 -22 20 -23 9 -23 9 -2 9 12 1 25 -6 28
-15z m2005 -12 l-24 -17 30 -6 30 -7 -32 -1 c-18 0 -33 2 -33 6 0 11 43 53 49
48 2 -3 -6 -13 -20 -23z m-3426 1 c-7 -2 -19 -2 -25 0 -7 3 -2 5 12 5 14 0 19
-2 13 -5z m3730 0 c-7 -2 -19 -2 -25 0 -7 3 -2 5 12 5 14 0 19 -2 13 -5z
m-4478 -23 c3 -5 2 -10 -4 -10 -5 0 -13 5 -16 10 -3 6 -2 10 4 10 5 0 13 -4
16 -10z m111 -8 c-10 -2 -22 0 -28 6 -6 6 0 7 19 4 21 -5 23 -7 9 -10z m2094
8 c0 -5 -2 -10 -4 -10 -3 0 -8 5 -11 10 -3 6 -1 10 4 10 6 0 11 -4 11 -10z
m1885 0 c3 -5 1 -10 -4 -10 -6 0 -11 5 -11 10 0 6 2 10 4 10 3 0 8 -4 11 -10z
m-4591 -86 c17 -45 -6 -93 -39 -80 -15 5 -22 76 -8 89 12 13 41 7 47 -9z m71
6 c4 -6 1 -17 -5 -25 -10 -12 -10 -15 -1 -15 7 0 11 -10 9 -22 -2 -16 -11 -24
-28 -25 -25 -3 -25 -3 -2 7 12 5 22 14 22 20 0 6 -10 15 -22 20 -17 6 -18 9
-6 9 27 1 31 20 6 30 -23 10 -23 10 -1 10 12 1 25 -4 28 -9z m137 -15 c15 -32
-4 -78 -30 -73 -17 3 -29 56 -18 84 9 22 35 16 48 -11z m59 12 c-32 -16 -37
-34 -9 -33 17 1 24 -5 26 -22 4 -27 -22 -40 -43 -22 -30 25 -10 90 28 90 22 0
22 -1 -2 -13z m1582 6 c-15 -3 -23 -12 -23 -24 0 -13 7 -19 23 -20 l22 -2 -22
-4 c-13 -2 -24 -13 -26 -26 -2 -12 -5 2 -6 31 -1 51 0 52 27 51 23 -2 24 -2 5
-6z m184 -70 c-2 -16 -4 -3 -4 27 0 30 2 43 4 28 2 -16 2 -40 0 -55z m800 61
c3 -8 -4 -28 -15 -44 l-22 -29 23 -4 c15 -3 12 -5 -11 -6 l-34 -1 26 31 c32
38 33 56 4 62 l-23 4 23 2 c12 0 25 -6 29 -15z m75 -9 c15 -32 -4 -78 -30 -73
-17 3 -29 56 -18 84 9 22 35 16 48 -11z m58 -19 c0 -26 5 -46 13 -49 6 -3 -1
-5 -18 -5 -16 0 -24 2 -17 5 15 6 16 73 1 73 -5 0 -7 5 -4 10 14 23 25 7 25
-34z m93 29 c4 -8 2 -17 -4 -21 -6 -4 -6 -11 2 -20 16 -19 4 -44 -21 -44 -25
0 -37 25 -21 44 9 11 9 15 0 18 -19 6 -2 38 20 38 10 0 21 -7 24 -15z m657
-29 c0 -26 5 -46 13 -49 6 -3 -1 -5 -18 -5 -16 0 -24 2 -17 5 15 6 16 73 1 73
-5 0 -7 5 -4 10 14 23 25 7 25 -34z m97 28 c3 -8 -4 -28 -15 -44 l-22 -29 23
-4 c15 -3 12 -5 -11 -6 l-34 -1 26 31 c32 38 33 56 4 62 l-23 4 23 2 c12 0 25
-6 29 -15z m131 -32 c2 -31 -1 -44 -13 -48 -36 -14 -63 54 -33 84 24 24 43 9
46 -36z m71 21 c-6 -16 -15 -39 -20 -52 -5 -13 -12 -21 -15 -18 -3 3 2 19 10
36 21 40 20 49 -6 54 -17 3 -14 5 9 6 32 1 32 0 22 -26z m1574 20 c-28 -5 -32
-42 -5 -44 15 -1 15 -2 0 -6 -9 -2 -19 -14 -21 -26 -2 -12 -5 2 -6 31 -1 51 0
52 27 51 23 -2 24 -2 5 -6z m202 -28 c16 0 20 -7 22 -35 1 -34 1 -34 -5 -5 -4
17 -14 30 -22 30 -8 0 -18 -13 -21 -30 -5 -22 -7 -16 -7 25 0 31 3 46 6 35 4
-11 16 -20 27 -20z m775 31 c0 -2 3 -11 6 -19 3 -8 -6 -26 -20 -40 l-26 -26
28 -4 c25 -4 24 -4 -5 -6 -40 -1 -41 5 -7 40 28 29 24 54 -7 46 -11 -3 -17 -1
-13 4 5 9 44 13 44 5z m81 -23 c5 -13 4 -25 -1 -28 -6 -4 -10 5 -10 19 0 16
-6 26 -14 26 -28 0 -36 -67 -10 -77 9 -3 20 0 25 8 6 10 9 11 9 1 0 -19 -28
-26 -45 -12 -18 15 -19 43 -4 71 13 25 39 21 50 -8z m44 17 c-3 -5 -12 -10
-18 -10 -7 0 -6 4 3 10 19 12 23 12 15 0z m100 -40 c0 -39 -3 -45 -23 -48 -26
-4 -40 21 -23 42 6 7 8 16 5 19 -12 12 6 38 23 35 14 -3 18 -13 18 -48z m683
38 c14 -14 -2 -48 -23 -48 -7 0 -16 -10 -18 -22 -2 -13 -5 1 -6 30 -1 44 2 52
17 52 10 0 23 -5 30 -12z m783 -1 c-32 -16 -37 -34 -9 -33 17 1 24 -5 26 -22
4 -25 -23 -41 -40 -24 -8 8 -5 9 11 5 16 -4 21 -1 21 16 0 23 -19 28 -38 9 -9
-9 -12 -8 -12 6 0 30 20 56 43 56 22 0 22 -1 -2 -13z m123 -9 c17 -27 -4 -73
-34 -75 -19 -1 -20 0 -5 4 19 5 35 20 35 35 0 3 -9 4 -20 1 -22 -6 -36 17 -26
43 7 19 35 15 50 -8z m-6015 -16 c-12 -5 -11 -49 1 -55 6 -3 5 -4 -2 -3 -14 3
-27 52 -20 73 3 9 7 9 17 0 7 -7 9 -13 4 -15z m3740 0 c-14 -5 -11 -50 4 -55
7 -4 6 -6 -4 -6 -12 -1 -18 9 -21 33 -5 46 0 59 17 43 7 -7 9 -13 4 -15z
m1569 -3 c-11 -7 -7 -41 7 -52 6 -5 4 -7 -5 -4 -15 4 -30 52 -22 74 3 9 7 9
17 0 8 -7 9 -14 3 -18z m-5744 2 c4 -5 -3 -7 -14 -4 -11 3 -20 0 -20 -6 0 -6
12 -12 28 -12 l27 -2 -27 -4 c-34 -5 -37 -20 -5 -26 19 -5 19 -5 -3 -4 -25 2
-37 25 -26 53 6 16 32 19 40 5z m59 -1 c-13 -5 -23 -16 -23 -25 0 -9 10 -20
23 -25 22 -10 22 -10 -3 -7 -42 4 -40 68 2 66 l23 0 -22 -9z m88 -2 c0 -7 2
-21 4 -30 2 -10 -1 -20 -6 -24 -5 -3 -9 8 -9 25 0 16 -6 32 -12 34 -8 3 -6 6
5 6 9 1 17 -5 18 -11z m70 5 c8 -59 6 -64 -20 -61 -33 4 -34 30 -1 39 l25 6
-25 11 c-24 10 -24 11 -2 11 12 1 22 -2 23 -6z m117 -16 c3 -13 -3 -17 -24
-17 -30 0 -23 -15 11 -23 15 -4 14 -5 -7 -6 -31 -1 -47 31 -27 55 16 19 43 14
47 -9z m43 16 l-25 -5 23 -18 c14 -9 21 -22 17 -29 -8 -13 -46 -15 -46 -2 0 5
9 7 20 4 11 -3 20 -1 20 5 0 6 -9 14 -20 17 -33 11 -23 36 14 34 18 -2 17 -2
-3 -6z m112 -1 c-6 -4 -13 -21 -16 -37 -4 -27 -4 -27 -6 8 -1 29 3 37 17 37
11 0 13 -3 5 -8z m75 -15 c3 -13 -3 -17 -24 -17 -30 0 -23 -15 11 -23 15 -4
14 -5 -7 -6 -31 -1 -47 31 -27 55 16 19 43 14 47 -9z m29 -29 c-2 -13 -4 -5
-4 17 -1 22 1 32 4 23 2 -10 2 -28 0 -40z m45 22 c3 -17 1 -33 -4 -36 -4 -3
-8 8 -8 25 0 16 -6 32 -12 34 -8 4 -7 6 3 6 11 1 18 -9 21 -29z m83 9 c14 -43
-45 -66 -61 -24 -8 19 13 45 37 45 10 0 21 -10 24 -21z m75 11 c0 -5 -4 -10
-10 -10 -5 0 -10 5 -10 10 0 6 5 10 10 10 6 0 10 -4 10 -10z m2948 -13 c3 -13
-3 -17 -24 -17 -30 0 -23 -15 11 -23 15 -4 14 -5 -7 -6 -31 -1 -47 31 -27 55
16 19 43 14 47 -9z m52 14 c-14 -4 -25 -12 -24 -19 2 -26 4 -31 17 -35 8 -3 7
-4 -2 -3 -8 1 -19 8 -24 18 -14 21 7 48 37 47 19 -1 18 -2 -4 -8z m158 -29 c3
-29 1 -32 -22 -32 -31 0 -36 29 -6 37 11 3 20 10 20 15 0 6 -9 8 -20 5 -11 -3
-17 -1 -14 4 13 21 39 3 42 -29z m112 34 c0 -2 3 -11 6 -20 5 -12 0 -16 -20
-16 -32 0 -34 -17 -3 -23 19 -5 19 -5 -3 -4 -41 3 -41 67 0 67 11 0 20 -2 20
-4z m48 -3 c-24 -6 -23 -19 3 -26 12 -3 19 -12 17 -19 -5 -15 -48 -24 -48 -10
0 6 10 8 23 5 l22 -5 -24 20 c-25 20 -21 43 7 41 15 -1 15 -2 0 -6z m110 -5
c-9 -7 -19 -24 -21 -38 -3 -18 -5 -14 -6 13 -1 32 2 37 21 37 19 0 20 -1 6
-12z m70 0 c19 -19 14 -28 -13 -28 -31 0 -33 -17 -2 -23 19 -5 19 -5 -3 -4
-15 1 -26 9 -28 20 -8 40 20 61 46 35z m79 -28 c1 -34 1 -34 -5 -5 -4 17 -14
30 -22 30 -8 0 -18 -13 -21 -30 -7 -30 -7 -30 -8 6 -1 33 1 36 27 35 24 -1 27
-5 29 -36z m82 21 c13 -24 -8 -55 -35 -49 -20 3 -30 29 -20 54 8 20 43 17 55
-5z m1141 -36 c8 0 18 13 21 30 7 30 7 30 8 -6 1 -33 -1 -36 -26 -35 -25 1
-28 5 -30 36 -1 34 -1 34 5 5 4 -17 14 -30 22 -30z m107 15 c1 -34 1 -34 -5
-5 -4 17 -14 30 -22 30 -8 0 -18 -13 -21 -30 -7 -30 -7 -30 -8 6 -1 33 1 36
27 35 24 -1 27 -5 29 -36z m98 -20 c8 0 15 14 18 33 4 31 4 31 5 -5 2 -34 0
-38 -23 -38 -23 0 -25 4 -23 38 1 36 1 36 5 5 3 -19 10 -33 18 -33z m99 44 c3
-9 6 -25 6 -35 0 -16 -6 -20 -27 -17 -35 4 -37 30 -3 39 l25 6 -25 11 c-23 10
-23 11 -4 11 12 1 25 -6 28 -15z m59 9 c-16 -3 -23 -11 -23 -28 0 -16 7 -25
23 -28 19 -5 19 -5 -3 -4 -15 1 -26 9 -28 20 -6 30 6 47 30 46 l23 -2 -22 -4z
m44 -45 c-2 -13 -4 -5 -4 17 -1 22 1 32 4 23 2 -10 2 -28 0 -40z m81 26 c2
-11 -4 -26 -12 -33 -31 -26 -71 14 -45 45 17 21 53 14 57 -12z m79 -14 c1 -34
1 -34 -5 -5 -4 17 -14 30 -22 30 -8 0 -18 -13 -21 -30 -7 -30 -7 -30 -8 6 -1
33 1 36 27 35 24 -1 27 -5 29 -36z m73 30 c0 -5 -4 -10 -10 -10 -5 0 -10 5
-10 10 0 6 5 10 10 10 6 0 10 -4 10 -10z m-8037 -27 c-7 -2 -19 -2 -25 0 -7 3
-2 5 12 5 14 0 19 -2 13 -5z m2984 1 c-3 -3 -12 -4 -19 -1 -8 3 -5 6 6 6 11 1
17 -2 13 -5z m756 -1 c-7 -2 -19 -2 -25 0 -7 3 -2 5 12 5 14 0 19 -2 13 -5z
m2980 0 c-7 -2 -19 -2 -25 0 -7 3 -2 5 12 5 14 0 19 -2 13 -5z m-4123 -23 c0
-5 -4 -10 -10 -10 -5 0 -10 5 -10 10 0 6 5 10 10 10 6 0 10 -4 10 -10z m5440
0 c0 -5 -4 -10 -10 -10 -5 0 -10 5 -10 10 0 6 5 10 10 10 6 0 10 -4 10 -10z
m-1452 -7 c-10 -2 -26 -2 -35 0 -10 3 -2 5 17 5 19 0 27 -2 18 -5z m-4870
-110 c-1 -44 -2 -45 -5 -10 -2 20 -10 37 -16 37 -7 0 -6 4 3 10 8 5 16 10 18
10 1 0 1 -21 0 -47z m100 23 c2 -10 -5 -31 -17 -47 l-21 -28 23 -4 c15 -3 12
-5 -11 -6 l-34 -1 26 31 c32 38 34 66 4 72 -20 5 -20 5 2 4 15 -1 26 -9 28
-21z m130 -5 c2 -13 -5 -32 -18 -46 l-22 -23 24 -5 c17 -3 14 -5 -11 -6 l-35
-1 27 28 c31 32 35 68 10 76 -14 4 -14 4 2 3 13 -1 21 -11 23 -26z m70 17 c30
-30 3 -108 -33 -94 -15 6 -22 86 -8 99 10 11 28 8 41 -5z m3442 -37 c0 -30 5
-51 13 -54 6 -3 -1 -5 -18 -5 -16 0 -24 2 -17 5 15 6 16 83 1 83 -5 0 -7 5 -4
10 14 23 25 7 25 -39z m90 45 c0 -2 3 -13 6 -23 6 -17 6 -17 -8 1 -10 12 -21
17 -32 13 -10 -4 -15 -3 -11 3 6 10 45 15 45 6z m134 -12 c18 -48 -5 -103 -39
-90 -15 6 -22 86 -8 99 12 13 41 7 47 -9z m76 -12 c-8 -30 -39 -92 -40 -81 0
4 7 23 15 42 20 48 19 55 -7 60 -17 3 -15 5 9 6 30 1 31 0 23 -27z m1573 21
c-29 -5 -33 -52 -5 -54 15 -1 15 -2 0 -6 -9 -2 -19 -14 -21 -26 -2 -12 -5 4
-6 36 -1 56 -1 57 27 56 23 -2 24 -2 5 -6z m202 -38 c16 0 20 -7 22 -35 1 -34
1 -34 -5 -5 -4 17 -14 30 -22 30 -8 0 -18 -13 -21 -30 -5 -21 -7 -12 -7 30 0
36 3 50 7 35 4 -16 13 -25 26 -25z m775 26 c8 -16 5 -26 -15 -50 l-26 -30 23
-4 c20 -4 19 -4 -4 -6 -33 -1 -35 9 -8 34 11 10 20 29 20 43 0 19 -4 23 -20
19 -11 -3 -18 -1 -14 4 9 15 33 10 44 -10z m78 -34 c2 -36 -1 -49 -13 -53 -24
-10 -46 16 -44 50 6 74 52 76 57 3z m70 -50 c9 -3 1 -5 -18 -5 -19 0 -29 2
-22 5 7 2 12 22 12 44 0 24 -5 39 -12 39 -9 0 -8 4 2 10 12 8 16 1 18 -40 2
-36 7 -50 20 -53z m80 76 c2 -13 -2 -23 -9 -23 -9 0 -8 -4 1 -15 17 -20 5 -45
-20 -45 -24 0 -37 25 -21 43 7 9 7 17 0 24 -5 5 -7 17 -3 27 10 25 48 16 52
-11z m-695 -37 c1 -25 -1 -46 -5 -46 -5 0 -8 14 -8 30 0 17 -5 30 -12 31 -10
0 -10 2 0 6 6 2 12 12 12 21 0 36 11 0 13 -42z m-433 20 c0 -2 3 -11 6 -20 5
-12 0 -16 -20 -16 -32 0 -34 -17 -3 -23 19 -5 19 -5 -3 -4 -41 3 -41 67 0 67
11 0 20 -2 20 -4z m53 -6 c-13 -5 -23 -16 -23 -25 0 -9 10 -20 23 -25 17 -8
18 -9 3 -7 -28 3 -43 32 -27 51 8 9 21 16 30 15 11 0 9 -3 -6 -9z m165 -28 c3
-29 1 -32 -22 -32 -31 0 -36 29 -6 37 11 3 20 10 20 15 0 6 -9 8 -20 5 -11 -3
-17 -1 -14 4 13 21 39 3 42 -29z m106 29 c4 -5 -3 -7 -14 -4 -11 3 -20 0 -20
-6 0 -6 12 -12 28 -12 l27 -2 -27 -4 c-34 -5 -37 -20 -5 -26 19 -5 19 -5 -3
-4 -25 2 -37 25 -26 53 6 16 32 19 40 5z m54 2 c-22 -6 -23 -12 -1 -28 19 -14
9 -36 -15 -34 -15 1 -15 2 1 6 21 6 22 12 0 28 -19 14 -9 36 15 34 15 -1 15
-2 0 -6z m109 -6 c-9 -7 -18 -23 -20 -37 -3 -19 -5 -17 -6 10 -1 30 3 36 20
37 19 2 19 0 6 -10z m71 -10 c3 -13 -3 -17 -24 -17 -30 0 -23 -15 11 -23 19
-4 19 -5 -1 -6 -32 -2 -48 22 -34 49 13 25 43 23 48 -3z m79 -17 c1 -34 1 -34
-5 -5 -4 17 -14 30 -22 30 -8 0 -18 -13 -21 -30 -7 -30 -7 -30 -8 6 -1 33 1
36 27 35 24 -1 27 -5 29 -36z m78 5 c0 -25 -4 -30 -25 -30 -16 0 -26 6 -28 18
-6 30 6 49 30 45 18 -2 23 -9 23 -33z m-2594 1 l-23 -24 28 -5 c28 -4 28 -4
-3 -6 -18 0 -33 2 -33 6 0 8 41 53 48 53 3 0 -5 -11 -17 -24z m-3658 -3 c-7
-2 -19 -2 -25 0 -7 3 -2 5 12 5 14 0 19 -2 13 -5z m3734 1 c-3 -3 -12 -4 -19
-1 -8 3 -5 6 6 6 11 1 17 -2 13 -5z m2986 -1 c-7 -2 -19 -2 -25 0 -7 3 -2 5
12 5 14 0 19 -2 13 -5z m-6855 -30 c-10 -2 -26 -2 -35 0 -10 3 -2 5 17 5 19 0
27 -2 18 -5z m5592 -107 c0 -26 5 -46 13 -49 6 -3 -1 -5 -18 -5 -16 0 -24 2
-17 5 15 6 16 73 1 73 -5 0 -7 5 -4 10 14 23 25 7 25 -34z m88 -49 c9 -3 1 -5
-18 -5 -19 0 -29 2 -22 5 6 2 12 20 12 39 0 20 -5 34 -12 34 -9 0 -8 4 2 10
12 8 16 2 18 -35 2 -31 8 -45 20 -48z m117 83 c-3 -5 -14 -10 -23 -10 -15 0
-15 2 -2 10 20 13 33 13 25 0z m98 -52 c9 -6 9 -8 0 -8 -7 0 -14 -8 -14 -17
-1 -17 -2 -17 -6 0 -2 9 -13 17 -24 17 -24 0 -24 5 4 43 l22 32 3 -30 c2 -16
9 -33 15 -37z m-160 -5 c-7 -2 -19 -2 -25 0 -7 3 -2 5 12 5 14 0 19 -2 13 -5z
m87 -29 c0 -2 -15 -4 -32 -3 -27 0 -29 2 -13 8 18 8 45 4 45 -5z m-7067 -381
c-7 -2 -19 -2 -25 0 -7 3 -2 5 12 5 14 0 19 -2 13 -5z m-378 -23 c3 -5 1 -10
-4 -10 -6 0 -11 5 -11 10 0 6 2 10 4 10 3 0 8 -4 11 -10z m302 4 c-3 -3 -12
-4 -19 -1 -8 3 -5 6 6 6 11 1 17 -2 13 -5z m-257 -33 c0 -5 3 -16 6 -25 3 -9
2 -16 -4 -16 -5 0 -12 11 -14 25 -3 14 -1 25 3 25 5 0 9 -4 9 -9z m24 -6 c3
-8 1 -15 -4 -15 -6 0 -10 7 -10 15 0 8 2 15 4 15 2 0 6 -7 10 -15z m550 -21
c5 -13 3 -14 -6 -6 -7 5 -24 12 -38 15 -22 4 -21 4 6 6 21 1 34 -5 38 -15z
m1064 -11 c-3 -17 -16 -33 -29 -33 -4 0 -5 10 -4 23 3 28 2 27 20 27 10 0 15
-7 13 -17z m-484 -33 c-6 -6 -18 -8 -27 -4 -13 5 -14 10 -6 26 10 19 12 19 27
4 11 -11 13 -19 6 -26z m-1194 16 c0 -2 3 -12 7 -22 5 -13 3 -16 -10 -11 -14
5 -17 0 -18 -26 l0 -32 -16 39 c-14 32 -14 39 -2 47 15 9 39 12 39 5z m2765
-27 c5 -6 5 -13 -2 -20 -17 -17 32 -61 61 -53 28 7 45 -12 53 -59 4 -30 2 -35
-18 -40 -13 -4 -38 -7 -56 -7 -25 0 -32 -5 -36 -22 -3 -22 -4 -21 -16 7 -7 17
-15 46 -16 65 -2 19 -9 36 -14 38 -16 5 -13 29 4 36 17 6 21 36 4 36 -5 0 -8
-4 -5 -9 3 -5 -11 -12 -31 -16 -21 -4 -49 -15 -63 -25 -14 -9 -44 -21 -68 -25
-36 -6 -47 -14 -69 -48 -15 -23 -27 -57 -27 -74 0 -18 -2 -29 -5 -24 -10 15
-51 -7 -63 -34 -13 -28 -25 -31 -53 -11 -21 14 -65 5 -65 -14 0 -5 -10 -10
-22 -10 l-21 0 21 23 c12 13 22 27 22 33 0 5 -5 1 -11 -8 -5 -10 -20 -18 -32
-18 -12 0 -46 -3 -75 -6 -29 -3 -60 -3 -69 0 -17 7 -15 9 80 106 10 10 39 23
64 30 26 6 55 18 67 26 11 7 42 14 68 14 37 0 72 12 154 51 58 28 122 57 142
64 37 13 78 10 97 -6z m-1138 -51 c-3 -8 -6 -5 -6 6 -1 11 2 17 5 13 3 -3 4
-12 1 -19z m43 12 c0 -5 -4 -10 -10 -10 -5 0 -10 5 -10 10 0 6 5 10 10 10 6 0
10 -4 10 -10z m6210 -20 c0 -4 -9 -10 -19 -13 -21 -5 -38 19 -18 26 15 5 37
-3 37 -13z m-6724 -8 c-7 -12 17 -39 39 -43 11 -3 21 -13 23 -24 2 -16 1 -17
-7 -5 -5 8 -12 12 -14 10 -8 -9 5 -70 15 -70 6 0 8 7 4 15 -3 9 0 15 7 15 19
0 17 -122 -2 -128 -10 -3 -11 0 -5 9 7 12 5 12 -9 0 -21 -16 -22 -31 -3 -31 7
0 19 -7 26 -15 16 -19 1 -19 -23 0 -11 7 -25 11 -33 8 -8 -3 -14 0 -14 6 0 7
-7 28 -15 48 -10 24 -19 33 -25 27 -12 -12 -70 -6 -70 6 0 5 -13 11 -30 15
-31 7 -42 25 -15 25 8 0 15 5 15 10 0 6 11 10 25 10 14 0 25 -4 25 -10 0 -5 5
-10 11 -10 6 0 8 7 5 16 -4 9 -1 14 5 12 7 -2 25 10 41 26 28 28 29 31 13 43
-15 10 -16 15 -5 28 13 15 25 21 16 7z m-49 -34 c-3 -7 -5 -2 -5 12 0 14 2 19
5 13 2 -7 2 -19 0 -25z m116 8 c4 -10 1 -13 -9 -9 -15 6 -19 23 -5 23 5 0 11
-7 14 -14z m-142 -23 c-12 -20 -14 -14 -5 12 4 9 9 14 11 11 3 -2 0 -13 -6
-23z m6909 7 c0 -5 -5 -10 -11 -10 -7 0 -18 -8 -26 -17 -12 -16 -12 -14 -2 10
12 26 39 38 39 17z m-7986 -76 c-17 -42 -32 -56 -48 -47 -5 3 -6 1 -3 -4 4 -6
-1 -17 -10 -24 -14 -12 -15 -11 -8 11 8 26 74 114 81 107 2 -2 -3 -21 -12 -43z
m1101 28 c-3 -3 -11 0 -18 7 -9 10 -8 11 6 5 10 -3 15 -9 12 -12z m-132 -36
c4 -10 -5 -18 -25 -25 -44 -15 -46 -14 -18 13 29 29 36 31 43 12z m7124 -171
c8 -22 -6 -33 -17 -15 -13 20 -12 30 0 30 6 0 13 -7 17 -15z m-7127 -35 c0 -5
-4 -10 -10 -10 -5 0 -10 5 -10 10 0 6 5 10 10 10 6 0 10 -4 10 -10z m1600 4
c0 -8 -19 -13 -24 -6 -3 5 1 9 9 9 8 0 15 -2 15 -3z"/>
<path d="M1115 4450 c10 -11 20 -20 23 -20 3 0 -3 9 -13 20 -10 11 -20 20 -23
20 -3 0 3 -9 13 -20z"/>
<path d="M622 4263 c-6 -2 -10 -9 -6 -14 8 -14 21 -11 21 6 0 8 -1 15 -1 14
-1 0 -7 -3 -14 -6z"/>
<path d="M1260 4242 c0 -5 6 -17 14 -28 16 -21 30 -16 20 9 -6 16 -34 32 -34
19z"/>
<path d="M1380 4098 c0 -7 5 -20 10 -28 8 -12 10 -9 10 13 0 15 -4 27 -10 27
-5 0 -10 -6 -10 -12z"/>
<path d="M707 4093 c-11 -10 -8 -43 4 -43 5 0 7 5 4 10 -3 6 -2 10 3 10 5 0 9
7 9 15 0 16 -9 19 -20 8z"/>
<path d="M771 3994 c0 -11 3 -14 6 -6 3 7 2 16 -1 19 -3 4 -6 -2 -5 -13z"/>
<path d="M1325 3889 c-10 -16 15 -68 30 -63 16 6 37 53 30 65 -8 12 -52 11
-60 -2z"/>
<path d="M1415 3861 c3 -5 -8 -18 -25 -27 -16 -10 -30 -21 -30 -24 0 -8 80
-103 93 -112 16 -10 27 0 27 23 0 10 5 19 10 19 6 0 10 -9 10 -20 0 -21 20
-29 20 -7 1 6 7 1 15 -13 10 -18 14 -20 15 -8 0 9 -6 23 -12 30 -7 7 -19 26
-27 41 -19 37 -80 107 -92 107 -6 0 -8 -4 -4 -9z"/>
<path d="M1341 3374 c0 -11 3 -14 6 -6 3 7 2 16 -1 19 -3 4 -6 -2 -5 -13z"/>
<path d="M544 3205 c-7 -28 1 -44 15 -29 15 15 17 47 4 51 -7 3 -15 -7 -19
-22z"/>
<path d="M1365 3186 c-12 -8 -16 -19 -12 -30 8 -19 22 -14 37 14 13 24 -2 33
-25 16z"/>
<path d="M1431 3179 c-26 -28 -14 -75 17 -72 12 2 22 -3 22 -10 0 -7 -8 -13
-17 -13 -10 -1 -25 -4 -34 -8 -12 -5 -14 0 -12 31 3 31 2 35 -7 21 -6 -10 -16
-18 -23 -18 -21 0 -60 -49 -53 -67 4 -9 2 -19 -4 -23 -13 -8 4 -93 20 -98 6
-2 17 -11 26 -19 8 -8 24 -13 34 -10 11 3 23 1 26 -4 7 -12 68 -11 81 2 10 10
2 83 -11 96 -11 11 -19 -6 -19 -37 0 -20 -3 -26 -9 -18 -12 20 -10 41 12 83
33 64 20 145 -22 145 -6 0 -8 9 -5 20 7 25 3 25 -22 -1z"/>
<path d="M1422 2827 c-30 -9 -32 -13 -26 -41 3 -17 12 -34 18 -38 21 -14 55
-8 66 12 6 11 18 20 28 20 15 1 14 2 -3 12 -11 6 -27 19 -35 28 -12 14 -21 15
-48 7z"/>
<path d="M425 2762 c-3 -18 -10 -30 -15 -27 -4 3 -13 -9 -19 -25 -6 -17 -19
-43 -31 -57 -24 -30 -26 -75 -5 -93 8 -7 15 -23 15 -36 0 -13 5 -24 11 -24 30
0 119 137 119 183 0 13 -11 36 -24 50 -14 15 -29 34 -34 44 -8 13 -11 11 -17
-15z"/>
<path d="M535 2719 c-4 -6 -5 -12 -2 -15 2 -3 7 2 10 11 7 17 1 20 -8 4z"/>
<path d="M1446 2688 c5 -8 2 -9 -9 -5 -9 3 -19 2 -22 -3 -9 -14 35 -23 50 -10
11 9 15 9 15 1 0 -6 5 -11 10 -11 6 0 10 9 10 20 0 16 -7 20 -31 20 -20 0 -28
-4 -23 -12z"/>
<path d="M1423 2636 c-14 -16 -7 -26 19 -26 13 0 18 6 16 17 -4 22 -20 26 -35
9z"/>
<path d="M468 2514 c-5 -4 -8 -16 -8 -28 0 -14 3 -17 11 -9 6 6 9 19 7 28 -1
9 -6 13 -10 9z"/>
<path d="M2363 3736 c-2 -19 1 -37 6 -40 4 -3 8 12 8 34 0 49 -11 53 -14 6z"/>
<path d="M2326 3661 c-4 -5 -2 -12 3 -15 5 -4 12 -2 15 3 4 5 2 12 -3 15 -5 4
-12 2 -15 -3z"/>
<path d="M3960 3940 c-8 -26 -7 -41 2 -32 6 6 8 16 5 24 -3 7 -6 11 -7 8z"/>
<path d="M4746 3625 c-7 -28 -1 -45 15 -45 6 0 7 6 1 16 -5 9 -7 25 -5 35 3
11 3 19 0 19 -3 0 -8 -11 -11 -25z"/>
<path d="M4866 3342 c2 -3 -1 -11 -7 -18 -6 -7 -7 -19 -3 -25 5 -9 10 -5 16
11 5 13 5 26 0 30 -5 4 -7 5 -6 2z"/>
<path d="M7265 3360 c4 -6 11 -8 16 -5 14 9 11 15 -7 15 -8 0 -12 -5 -9 -10z"/>
<path d="M7290 3329 c0 -5 5 -7 10 -4 6 3 10 8 10 11 0 2 -4 4 -10 4 -5 0 -10
-5 -10 -11z"/>
<path d="M6566 2985 c-3 -9 -6 -22 -5 -28 0 -7 5 -1 10 12 5 13 8 26 5 28 -2
2 -6 -3 -10 -12z"/>
<path d="M6474 2848 c19 -27 21 -71 4 -101 -10 -19 -9 -20 4 -9 9 7 18 25 21
40 6 30 -16 92 -33 92 -7 0 -5 -9 4 -22z"/>
<path d="M4520 3215 c0 -8 9 -15 20 -15 13 0 18 5 14 15 -4 8 -12 15 -20 15
-8 0 -14 -7 -14 -15z"/>
<path d="M4537 1820 c-3 -13 0 -20 9 -20 15 0 19 26 5 34 -5 3 -11 -3 -14 -14z"/>
<path d="M6584 1805 c-7 -18 3 -35 22 -35 8 0 14 10 14 25 0 27 -27 35 -36 10z"/>
<path d="M607 1813 c-15 -15 -7 -43 13 -43 15 0 20 7 20 25 0 24 -18 34 -33
18z"/>
<path d="M870 1780 c0 -5 7 -10 15 -10 8 0 15 5 15 10 0 6 -7 10 -15 10 -8 0
-15 -4 -15 -10z"/>
<path d="M957 1814 c-15 -15 -7 -45 11 -42 9 2 17 12 17 22 0 20 -16 31 -28
20z"/>
<path d="M1070 1780 c0 -5 6 -10 14 -10 8 0 18 5 21 10 3 6 -3 10 -14 10 -12
0 -21 -4 -21 -10z"/>
<path d="M1420 1780 c0 -5 7 -10 15 -10 8 0 15 5 15 10 0 6 -7 10 -15 10 -8 0
-15 -4 -15 -10z"/>
<path d="M1610 1810 c0 -5 9 -10 21 -10 11 0 17 5 14 10 -3 6 -13 10 -21 10
-8 0 -14 -4 -14 -10z"/>
<path d="M2464 1805 c-4 -9 -2 -21 4 -27 15 -15 44 -1 40 19 -4 23 -36 29 -44
8z"/>
<path d="M2780 1780 c0 -5 7 -10 15 -10 8 0 15 5 15 10 0 6 -7 10 -15 10 -8 0
-15 -4 -15 -10z"/>
<path d="M3317 1814 c-15 -15 -7 -45 11 -42 9 2 17 12 17 22 0 20 -16 31 -28
20z"/>
<path d="M4337 1807 c-3 -8 -2 -20 3 -27 11 -18 42 -4 38 17 -4 22 -34 29 -41
10z"/>
<path d="M4614 1805 c-7 -18 3 -35 22 -35 8 0 14 10 14 25 0 27 -27 35 -36 10z"/>
<path d="M4770 1780 c0 -5 6 -10 14 -10 8 0 18 5 21 10 3 6 -3 10 -14 10 -12
0 -21 -4 -21 -10z"/>
<path d="M4970 1780 c0 -5 7 -10 15 -10 8 0 15 5 15 10 0 6 -7 10 -15 10 -8 0
-15 -4 -15 -10z"/>
<path d="M6204 1805 c-4 -9 -2 -21 4 -27 15 -15 44 -1 40 19 -4 23 -36 29 -44
8z"/>
<path d="M6477 1814 c-15 -15 -7 -45 11 -42 9 2 17 12 17 22 0 20 -16 31 -28
20z"/>
<path d="M6665 1810 c-3 -5 3 -10 14 -10 12 0 21 5 21 10 0 6 -6 10 -14 10 -8
0 -18 -4 -21 -10z"/>
<path d="M6970 1780 c0 -5 7 -10 15 -10 8 0 15 5 15 10 0 6 -7 10 -15 10 -8 0
-15 -4 -15 -10z"/>
<path d="M8074 1805 c-7 -18 3 -35 22 -35 8 0 14 10 14 25 0 27 -27 35 -36 10z"/>
<path d="M8330 1780 c0 -5 7 -10 15 -10 8 0 15 5 15 10 0 6 -7 10 -15 10 -8 0
-15 -4 -15 -10z"/>
<path d="M8520 1780 c0 -5 6 -10 14 -10 8 0 18 5 21 10 3 6 -3 10 -14 10 -12
0 -21 -4 -21 -10z"/>
<path d="M333 1665 c0 -18 5 -25 18 -25 14 0 19 7 19 25 0 18 -5 25 -19 25
-13 0 -18 -7 -18 -25z"/>
<path d="M4070 1665 c0 -28 24 -34 34 -9 8 20 -1 34 -20 34 -8 0 -14 -10 -14
-25z"/>
<path d="M4872 1623 c2 -10 10 -18 18 -18 22 0 18 29 -3 33 -14 3 -18 -1 -15
-15z"/>
<path d="M4975 1631 c-8 -15 3 -31 21 -31 9 0 14 7 12 17 -4 20 -24 28 -33 14z"/>
<path d="M6650 1630 c0 -19 5 -30 14 -30 20 0 29 16 21 40 -10 32 -35 25 -35
-10z"/>
<path d="M7810 1675 c0 -8 7 -15 15 -15 8 0 15 7 15 15 0 8 -7 15 -15 15 -8 0
-15 -7 -15 -15z"/>
<path d="M690 1610 c0 -5 7 -10 15 -10 8 0 15 5 15 10 0 6 -7 10 -15 10 -8 0
-15 -4 -15 -10z"/>
<path d="M865 1640 c-7 -23 1 -40 20 -40 8 0 17 5 20 10 9 15 -4 50 -20 50 -8
0 -16 -9 -20 -20z"/>
<path d="M2320 1610 c0 -5 6 -10 14 -10 8 0 18 5 21 10 3 6 -3 10 -14 10 -12
0 -21 -4 -21 -10z"/>
<path d="M2655 1640 c-8 -24 1 -40 21 -40 9 0 14 11 14 30 0 35 -25 42 -35 10z"/>
<path d="M2730 1610 c0 -5 6 -10 14 -10 8 0 18 5 21 10 3 6 -3 10 -14 10 -12
0 -21 -4 -21 -10z"/>
<path d="M4430 1610 c0 -5 7 -10 15 -10 8 0 15 5 15 10 0 6 -7 10 -15 10 -8 0
-15 -4 -15 -10z"/>
<path d="M4605 1640 c-8 -24 1 -40 21 -40 9 0 14 11 14 30 0 35 -25 42 -35 10z"/>
<path d="M6102 1633 c2 -17 10 -29 21 -31 13 -3 17 3 17 27 0 25 -4 31 -21 31
-16 0 -20 -5 -17 -27z"/>
<path d="M6350 1645 c0 -8 7 -15 15 -15 8 0 15 7 15 15 0 8 -7 15 -15 15 -8 0
-15 -7 -15 -15z"/>
<path d="M6737 1653 c-13 -12 -7 -23 13 -23 13 0 18 5 14 15 -7 16 -17 19 -27
8z"/>
<path d="M7180 1645 c0 -8 7 -15 15 -15 8 0 15 7 15 15 0 8 -7 15 -15 15 -8 0
-15 -7 -15 -15z"/>
<path d="M7886 1645 c-4 -10 1 -15 14 -15 11 0 20 7 20 15 0 8 -6 15 -14 15
-8 0 -16 -7 -20 -15z"/>
<path d="M7950 1610 c0 -5 6 -10 14 -10 8 0 18 5 21 10 3 6 -3 10 -14 10 -12
0 -21 -4 -21 -10z"/>
<path d="M8416 1645 c-4 -10 1 -15 14 -15 11 0 20 7 20 15 0 8 -6 15 -14 15
-8 0 -16 -7 -20 -15z"/>
<path d="M8820 1645 c0 -8 7 -15 15 -15 8 0 15 7 15 15 0 8 -7 15 -15 15 -8 0
-15 -7 -15 -15z"/>
<path d="M8994 1633 c1 -18 7 -29 19 -31 13 -3 17 3 17 27 0 24 -5 31 -19 31
-13 0 -18 -7 -17 -27z"/>
<path d="M1374 1507 c-9 -25 0 -62 16 -62 10 0 15 10 15 34 0 36 -21 54 -31
28z"/>
<path d="M1525 1511 c-8 -15 3 -31 21 -31 9 0 14 7 12 17 -4 20 -24 28 -33 14z"/>
<path d="M2200 1500 c0 -15 5 -20 18 -18 9 2 17 10 17 18 0 8 -8 16 -17 18
-13 2 -18 -3 -18 -18z"/>
<path d="M3112 1490 c-10 -17 -10 -20 3 -20 8 0 15 9 15 20 0 11 -1 20 -3 20
-1 0 -8 -9 -15 -20z"/>
<path d="M5117 1513 c-14 -13 -7 -73 7 -73 18 0 30 33 21 60 -6 20 -16 25 -28
13z"/>
<path d="M5260 1505 c0 -8 7 -15 15 -15 8 0 15 7 15 15 0 8 -7 15 -15 15 -8 0
-15 -7 -15 -15z"/>
<path d="M5267 1473 c-4 -3 -7 -12 -7 -20 0 -15 26 -18 34 -4 7 11 -18 33 -27
24z"/>
<path d="M5940 1500 c0 -15 5 -20 18 -18 9 2 17 10 17 18 0 8 -8 16 -17 18
-13 2 -18 -3 -18 -18z"/>
<path d="M6740 1505 c0 -8 7 -15 15 -15 8 0 15 7 15 15 0 8 -7 15 -15 15 -8 0
-15 -7 -15 -15z"/>
<path d="M6741 1470 c-16 -9 -6 -30 15 -30 15 0 20 25 6 34 -4 2 -14 1 -21 -4z"/>
<path d="M8062 1468 c2 -12 10 -23 18 -23 22 0 19 39 -3 43 -15 3 -18 -1 -15
-20z"/>
<path d="M8454 1475 c-7 -18 3 -35 21 -35 15 0 28 27 19 41 -8 14 -34 11 -40
-6z"/>
<path d="M725 1480 c-3 -5 3 -10 14 -10 12 0 21 5 21 10 0 6 -6 10 -14 10 -8
0 -18 -4 -21 -10z"/>
<path d="M955 1480 c-3 -5 3 -10 14 -10 12 0 21 5 21 10 0 6 -6 10 -14 10 -8
0 -18 -4 -21 -10z"/>
<path d="M1104 1475 c-4 -9 -2 -21 4 -27 15 -15 44 -1 40 19 -4 23 -36 29 -44
8z"/>
<path d="M2560 1450 c0 -5 7 -10 15 -10 8 0 15 5 15 10 0 6 -7 10 -15 10 -8 0
-15 -4 -15 -10z"/>
<path d="M2734 1475 c-4 -9 -2 -21 4 -27 15 -15 44 -1 40 19 -4 23 -36 29 -44
8z"/>
<path d="M4140 1480 c0 -5 7 -10 15 -10 8 0 15 5 15 10 0 6 -7 10 -15 10 -8 0
-15 -4 -15 -10z"/>
<path d="M4350 1450 c0 -5 7 -10 15 -10 8 0 15 5 15 10 0 6 -7 10 -15 10 -8 0
-15 -4 -15 -10z"/>
<path d="M4460 1480 c0 -5 9 -10 21 -10 11 0 17 5 14 10 -3 6 -13 10 -21 10
-8 0 -14 -4 -14 -10z"/>
<path d="M4690 1480 c0 -5 9 -10 21 -10 11 0 17 5 14 10 -3 6 -13 10 -21 10
-8 0 -14 -4 -14 -10z"/>
<path d="M4844 1475 c-4 -9 -2 -21 4 -27 15 -15 44 -1 40 19 -4 23 -36 29 -44
8z"/>
<path d="M6300 1450 c0 -5 7 -10 15 -10 8 0 15 5 15 10 0 6 -7 10 -15 10 -8 0
-15 -4 -15 -10z"/>
<path d="M6470 1465 c0 -18 5 -25 20 -25 15 0 20 7 20 25 0 18 -5 25 -20 25
-15 0 -20 -7 -20 -25z"/>
<path d="M8145 1480 c-3 -5 3 -10 14 -10 12 0 21 5 21 10 0 6 -6 10 -14 10 -8
0 -18 -4 -21 -10z"/>
<path d="M8350 1450 c0 -5 7 -10 15 -10 8 0 15 5 15 10 0 6 -7 10 -15 10 -8 0
-15 -4 -15 -10z"/>
<path d="M334 1347 c-9 -25 0 -62 16 -62 10 0 15 10 15 34 0 36 -21 54 -31 28z"/>
<path d="M547 1353 c-14 -13 -7 -73 7 -73 18 0 30 33 21 60 -6 20 -16 25 -28
13z"/>
<path d="M615 1310 c-8 -14 3 -30 21 -30 8 0 14 9 14 20 0 21 -24 28 -35 10z"/>
<path d="M3247 1353 c-14 -13 -7 -73 7 -73 18 0 30 33 21 60 -6 20 -16 25 -28
13z"/>
<path d="M3392 1348 c5 -15 28 -18 29 -3 0 6 -7 12 -17 13 -10 3 -15 -1 -12
-10z"/>
<path d="M3393 1304 c-7 -19 2 -28 22 -21 19 8 19 23 0 31 -9 3 -18 -1 -22
-10z"/>
<path d="M4274 1347 c-9 -25 0 -62 16 -62 10 0 15 10 15 34 0 36 -21 54 -31
28z"/>
<path d="M7130 1345 c0 -8 7 -15 15 -15 8 0 15 7 15 15 0 8 -7 15 -15 15 -8 0
-15 -7 -15 -15z"/>
<path d="M7131 1306 c-12 -14 -5 -26 16 -26 15 0 18 26 4 34 -5 3 -14 0 -20
-8z"/>
<path d="M7810 1340 c0 -23 25 -27 33 -6 7 16 -1 26 -20 26 -7 0 -13 -9 -13
-20z"/>
<path d="M8710 1340 c0 -15 5 -20 18 -18 9 2 17 10 17 18 0 8 -8 16 -17 18
-13 2 -18 -3 -18 -18z"/>
<path d="M2480 1290 c0 -5 7 -10 15 -10 8 0 15 5 15 10 0 6 -7 10 -15 10 -8 0
-15 -4 -15 -10z"/>
<path d="M2595 1320 c-3 -5 3 -10 14 -10 12 0 21 5 21 10 0 6 -6 10 -14 10 -8
0 -18 -4 -21 -10z"/>
<path d="M2825 1320 c-3 -5 3 -10 14 -10 12 0 21 5 21 10 0 6 -6 10 -14 10 -8
0 -18 -4 -21 -10z"/>
<path d="M2976 1321 c-10 -16 5 -42 23 -39 21 4 21 42 -1 46 -9 2 -19 -1 -22
-7z"/>
<path d="M6005 1320 c-3 -5 3 -10 14 -10 12 0 21 5 21 10 0 6 -6 10 -14 10 -8
0 -18 -4 -21 -10z"/>
<path d="M6220 1290 c0 -5 7 -10 15 -10 8 0 15 5 15 10 0 6 -7 10 -15 10 -8 0
-15 -4 -15 -10z"/>
<path d="M6335 1320 c-3 -5 3 -10 15 -10 12 0 18 5 15 10 -3 6 -10 10 -15 10
-5 0 -12 -4 -15 -10z"/>
<path d="M6560 1320 c0 -5 9 -10 21 -10 11 0 17 5 14 10 -3 6 -13 10 -21 10
-8 0 -14 -4 -14 -10z"/>
<path d="M6714 1315 c-7 -18 3 -35 22 -35 8 0 14 10 14 25 0 27 -27 35 -36 10z"/>
<path d="M8160 1290 c0 -5 6 -10 14 -10 8 0 18 5 21 10 3 6 -3 10 -14 10 -12
0 -21 -4 -21 -10z"/>
<path d="M8336 1321 c-10 -16 5 -42 23 -39 21 4 21 42 -1 46 -9 2 -19 -1 -22
-7z"/>
<path d="M2484 1187 c-10 -27 0 -72 16 -72 11 0 15 11 15 39 0 40 -20 61 -31
33z"/>
<path d="M6144 1187 c-10 -27 0 -72 16 -72 11 0 15 11 15 39 0 40 -20 61 -31
33z"/>
<path d="M8847 1193 c-2 -4 -3 -24 -3 -43 1 -24 6 -35 16 -35 11 0 15 11 15
39 0 36 -17 59 -28 39z"/>
<path d="M8997 1185 c-7 -16 8 -29 23 -20 15 9 12 35 -4 35 -8 0 -16 -7 -19
-15z"/>
<path d="M9001 1140 c-16 -9 -6 -30 15 -30 15 0 20 25 6 34 -4 2 -14 1 -21 -4z"/>
<path d="M7870 1150 c0 -5 9 -10 21 -10 11 0 17 5 14 10 -3 6 -13 10 -21 10
-8 0 -14 -4 -14 -10z"/>
<path d="M8090 1120 c0 -5 7 -10 15 -10 8 0 15 5 15 10 0 6 -7 10 -15 10 -8 0
-15 -4 -15 -10z"/>
<path d="M8430 1150 c0 -5 7 -10 15 -10 8 0 15 5 15 10 0 6 -7 10 -15 10 -8 0
-15 -4 -15 -10z"/>
<path d="M8587 1153 c-15 -15 -7 -43 13 -43 15 0 20 7 20 25 0 24 -18 34 -33
18z"/>
<path d="M8092 1000 c-10 -17 -10 -20 3 -20 8 0 15 9 15 20 0 11 -1 20 -3 20
-1 0 -8 -9 -15 -20z"/>
<path d="M3010 262 c-21 -10 -60 -45 -60 -54 0 -9 45 18 74 44 20 18 14 22
-14 10z"/>
<path d="M1821 207 c9 -7 18 -19 22 -27 3 -9 6 -5 6 10 1 20 -4 26 -21 27 -20
2 -21 0 -7 -10z"/>
<path d="M455 401 c-3 -5 -1 -12 5 -16 5 -3 10 1 10 9 0 18 -6 21 -15 7z"/>
<path d="M503 384 c-4 -11 -8 -12 -13 -4 -5 8 -9 7 -13 -4 -9 -24 20 -20 33 4
6 11 8 20 5 20 -3 0 -8 -7 -12 -16z"/>
<path d="M371 244 c0 -11 3 -14 6 -6 3 7 2 16 -1 19 -3 4 -6 -2 -5 -13z"/>
<path d="M6042 68 c-14 -14 -16 -44 -3 -52 16 -11 39 5 44 29 2 14 0 22 -4 19
-5 -3 -9 0 -9 5 0 14 -13 14 -28 -1z"/>
<path d="M6188 33 c3 -27 9 -33 27 -33 18 0 24 6 27 33 3 32 2 34 -27 34 -29
0 -30 -2 -27 -34z"/>
<path d="M6670 26 c0 -14 5 -26 10 -26 6 0 10 9 10 19 0 11 -4 23 -10 26 -6 4
-10 -5 -10 -19z"/>
<path d="M6990 25 c0 -14 6 -25 14 -25 9 0 12 8 8 25 -6 32 -22 32 -22 0z"/>
<path d="M6767 26 c-4 -10 -5 -21 -2 -24 9 -9 17 6 13 25 -3 17 -4 17 -11 -1z"/>
<path d="M7131 18 c-1 -20 14 -24 25 -6 4 6 3 8 -4 4 -5 -3 -13 0 -15 6 -3 8
-6 6 -6 -4z"/>
</g>
</svg>
